Interstate-Condensed_Bold_Italic.ufo
<glyph name="exclam" format="1">
  <advance width="265"/>
  <unicode hex="0021"/>
  <outline>
    <contour>
      <point x="199" y="364" type="line"/>
      <point x="153" y="210" type="line"/>
      <point x="66" y="210" type="line"/>
      <point x="74" y="364" type="line"/>
      <point x="133" y="700" type="line"/>
      <point x="258" y="700" type="line"/>
    </contour>
    <contour>
      <point x="166" y="72" type="curve" smooth="yes"/>
      <point x="166" y="27"/>
      <point x="128" y="-11"/>
      <point x="83" y="-11" type="curve" smooth="yes"/>
      <point x="38" y="-11"/>
      <point x="0" y="27"/>
      <point x="0" y="72" type="curve" smooth="yes"/>
      <point x="0" y="117"/>
      <point x="38" y="155"/>
      <point x="83" y="155" type="curve" smooth="yes"/>
      <point x="128" y="155"/>
      <point x="166" y="117"/>
    </contour>
  </outline>
</glyph>
<glyph name="quotedbl" format="1">
  <advance width="461"/>
  <unicode hex="0022"/>
  <outline>
    <contour>
      <point x="466" y="700" type="line"/>
      <point x="377" y="373" type="line"/>
      <point x="297" y="373" type="line"/>
      <point x="322" y="700" type="line"/>
    </contour>
    <contour>
      <point x="255" y="700" type="line"/>
      <point x="166" y="373" type="line"/>
      <point x="86" y="373" type="line"/>
      <point x="111" y="700" type="line"/>
    </contour>
  </outline>
</glyph>
<glyph name="numbersign" format="1">
  <advance width="660"/>
  <unicode hex="0023"/>
  <outline>
    <contour>
      <point x="574" y="140" type="line"/>
      <point x="474" y="140" type="line"/>
      <point x="449" y="0" type="line"/>
      <point x="331" y="0" type="line"/>
      <point x="356" y="140" type="line"/>
      <point x="222" y="140" type="line"/>
      <point x="197" y="0" type="line"/>
      <point x="79" y="0" type="line"/>
      <point x="104" y="140" type="line"/>
      <point x="4" y="140" type="line"/>
      <point x="23" y="248" type="line"/>
      <point x="123" y="248" type="line"/>
      <point x="159" y="452" type="line"/>
      <point x="59" y="452" type="line"/>
      <point x="78" y="560" type="line"/>
      <point x="178" y="560" type="line"/>
      <point x="202" y="700" type="line"/>
      <point x="320" y="700" type="line"/>
      <point x="296" y="560" type="line"/>
      <point x="430" y="560" type="line"/>
      <point x="454" y="700" type="line"/>
      <point x="572" y="700" type="line"/>
      <point x="548" y="560" type="line"/>
      <point x="648" y="560" type="line"/>
      <point x="629" y="452" type="line"/>
      <point x="529" y="452" type="line"/>
      <point x="493" y="248" type="line"/>
      <point x="593" y="248" type="line"/>
    </contour>
    <contour>
      <point x="375" y="248" type="line"/>
      <point x="411" y="452" type="line"/>
      <point x="277" y="452" type="line"/>
      <point x="241" y="248" type="line"/>
    </contour>
  </outline>
</glyph>
<glyph name="dollar" format="1">
  <advance width="471"/>
  <unicode hex="0024"/>
  <outline>
    <contour>
      <point x="251" y="7" type="curve"/>
      <point x="236" y="-80" type="line"/>
      <point x="110" y="-80" type="line"/>
      <point x="126" y="7" type="line"/>
      <point x="64" y="23"/>
      <point x="18" y="64"/>
      <point x="-9" y="109" type="curve"/>
      <point x="91" y="195" type="line"/>
      <point x="120" y="143"/>
      <point x="164" y="115"/>
      <point x="206" y="115" type="curve" smooth="yes"/>
      <point x="262" y="115"/>
      <point x="299" y="149"/>
      <point x="299" y="203" type="curve" smooth="yes"/>
      <point x="299" y="236"/>
      <point x="277" y="264"/>
      <point x="211" y="303" type="curve" smooth="yes"/>
      <point x="128" y="352"/>
      <point x="78" y="399"/>
      <point x="78" y="483" type="curve" smooth="yes"/>
      <point x="78" y="592"/>
      <point x="147" y="668"/>
      <point x="246" y="693" type="curve"/>
      <point x="262" y="780" type="line"/>
      <point x="388" y="780" type="line"/>
      <point x="372" y="693" type="line"/>
      <point x="422" y="680"/>
      <point x="455" y="648"/>
      <point x="483" y="601" type="curve"/>
      <point x="386" y="523" type="line"/>
      <point x="358" y="568"/>
      <point x="334" y="585"/>
      <point x="286" y="585" type="curve" smooth="yes"/>
      <point x="241" y="585"/>
      <point x="208" y="559"/>
      <point x="208" y="509" type="curve" smooth="yes"/>
      <point x="208" y="476"/>
      <point x="228" y="453"/>
      <point x="288" y="417" type="curve" smooth="yes"/>
      <point x="382" y="361"/>
      <point x="428" y="320"/>
      <point x="428" y="233" type="curve" smooth="yes"/>
      <point x="428" y="114"/>
      <point x="359" y="35"/>
    </contour>
  </outline>
</glyph>
<glyph name="ampersand" format="1">
  <advance width="542"/>
  <unicode hex="0026"/>
  <outline>
    <contour>
      <point x="487" y="0" type="line"/>
      <point x="353" y="0" type="line"/>
      <point x="328" y="50" type="line"/>
      <point x="281" y="11"/>
      <point x="229" y="-11"/>
      <point x="175" y="-11" type="curve" smooth="yes"/>
      <point x="65" y="-11"/>
      <point x="14" y="61"/>
      <point x="14" y="146" type="curve" smooth="yes"/>
      <point x="14" y="227"/>
      <point x="67" y="320"/>
      <point x="165" y="373" type="curve"/>
      <point x="147" y="409" type="line" smooth="yes"/>
      <point x="131" y="441"/>
      <point x="119" y="479"/>
      <point x="119" y="518" type="curve" smooth="yes"/>
      <point x="119" y="652"/>
      <point x="222" y="712"/>
      <point x="329" y="712" type="curve" smooth="yes"/>
      <point x="390" y="712"/>
      <point x="453" y="690"/>
      <point x="498" y="652" type="curve"/>
      <point x="422" y="550" type="line"/>
      <point x="392" y="578"/>
      <point x="346" y="595"/>
      <point x="316" y="595" type="curve" smooth="yes"/>
      <point x="278" y="595"/>
      <point x="245" y="573"/>
      <point x="245" y="528" type="curve" smooth="yes"/>
      <point x="245" y="504"/>
      <point x="253" y="482"/>
      <point x="266" y="456" type="curve" smooth="yes"/>
      <point x="363" y="255" type="line"/>
      <point x="379" y="287"/>
      <point x="392" y="316"/>
      <point x="406" y="354" type="curve"/>
      <point x="493" y="312" type="line"/>
      <point x="471" y="251"/>
      <point x="445" y="196"/>
      <point x="414" y="150" type="curve"/>
    </contour>
    <contour>
      <point x="283" y="140" type="curve"/>
      <point x="209" y="285" type="line"/>
      <point x="164" y="256"/>
      <point x="136" y="215"/>
      <point x="136" y="171" type="curve" smooth="yes"/>
      <point x="136" y="129"/>
      <point x="157" y="104"/>
      <point x="198" y="104" type="curve" smooth="yes"/>
      <point x="234" y="104"/>
      <point x="257" y="115"/>
    </contour>
  </outline>
</glyph>
<glyph name="quotesingle" format="1">
  <advance width="250"/>
  <unicode hex="0027"/>
  <outline>
    <contour>
      <point x="255" y="700" type="line"/>
      <point x="166" y="373" type="line"/>
      <point x="86" y="373" type="line"/>
      <point x="111" y="700" type="line"/>
    </contour>
  </outline>
</glyph>
<glyph name="parenleft" format="1">
  <advance width="325"/>
  <unicode hex="0028"/>
  <outline>
    <contour>
      <point x="237" y="-57" type="curve"/>
      <point x="159" y="-109" type="line"/>
      <point x="94" y="-34"/>
      <point x="42" y="73"/>
      <point x="42" y="202" type="curve" smooth="yes"/>
      <point x="42" y="414"/>
      <point x="157" y="595"/>
      <point x="303" y="716" type="curve"/>
      <point x="364" y="663" type="line"/>
      <point x="249" y="549"/>
      <point x="170" y="376"/>
      <point x="170" y="186" type="curve" smooth="yes"/>
      <point x="170" y="85"/>
      <point x="196" y="9"/>
    </contour>
  </outline>
</glyph>
<glyph name="parenright" format="1">
  <advance width="325"/>
  <unicode hex="0029"/>
  <outline>
    <contour>
      <point x="10" y="-110" type="curve"/>
      <point x="-51" y="-57" type="line"/>
      <point x="67" y="60"/>
      <point x="143" y="236"/>
      <point x="143" y="419" type="curve" smooth="yes"/>
      <point x="143" y="521"/>
      <point x="117" y="596"/>
      <point x="76" y="663" type="curve"/>
      <point x="155" y="716" type="line"/>
      <point x="221" y="641"/>
      <point x="270" y="534"/>
      <point x="270" y="403" type="curve" smooth="yes"/>
      <point x="270" y="187"/>
      <point x="154" y="11"/>
    </contour>
  </outline>
</glyph>
<glyph name="asterisk" format="1">
  <advance width="440"/>
  <unicode hex="002A"/>
  <outline>
    <contour>
      <point x="448" y="444" type="line"/>
      <point x="400" y="362" type="line"/>
      <point x="291" y="435" type="line"/>
      <point x="301" y="304" type="line"/>
      <point x="205" y="304" type="line"/>
      <point x="214" y="437" type="line"/>
      <point x="104" y="363" type="line"/>
      <point x="58" y="444" type="line"/>
      <point x="185" y="502" type="line"/>
      <point x="58" y="560" type="line"/>
      <point x="104" y="642" type="line"/>
      <point x="214" y="568" type="line"/>
      <point x="205" y="700" type="line"/>
      <point x="301" y="700" type="line"/>
      <point x="291" y="569" type="line"/>
      <point x="400" y="643" type="line"/>
      <point x="448" y="561" type="line"/>
      <point x="319" y="503" type="line"/>
    </contour>
  </outline>
</glyph>
<glyph name="comma" format="1">
  <advance width="246"/>
  <unicode hex="002C"/>
  <outline>
    <contour>
      <point x="168" y="147" type="line"/>
      <point x="48" y="-112" type="line"/>
      <point x="-34" y="-112" type="line"/>
      <point x="25" y="147" type="line"/>
    </contour>
  </outline>
</glyph>
<glyph name="hyphen" format="1">
  <advance width="345"/>
  <unicode hex="002D"/>
  <unicode hex="2010"/>
  <unicode hex="2011"/>
  <outline>
    <contour>
      <point x="284" y="302" type="line"/>
      <point x="29" y="302" type="line"/>
      <point x="51" y="424" type="line"/>
      <point x="306" y="424" type="line"/>
    </contour>
  </outline>
</glyph>
<glyph name="period" format="1">
  <advance width="246"/>
  <unicode hex="002E"/>
  <outline>
    <contour>
      <point x="74" y="155" type="curve" smooth="yes"/>
      <point x="120" y="155"/>
      <point x="157" y="118"/>
      <point x="157" y="72" type="curve" smooth="yes"/>
      <point x="157" y="26"/>
      <point x="120" y="-11"/>
      <point x="74" y="-11" type="curve" smooth="yes"/>
      <point x="28" y="-11"/>
      <point x="-9" y="26"/>
      <point x="-9" y="72" type="curve" smooth="yes"/>
      <point x="-9" y="118"/>
      <point x="28" y="155"/>
    </contour>
  </outline>
</glyph>
<glyph name="slash" format="1">
  <advance width="404"/>
  <unicode hex="002F"/>
  <outline>
    <contour>
      <point x="480" y="790" type="line"/>
      <point x="49" y="-90" type="line"/>
      <point x="-76" y="-90" type="line"/>
      <point x="355" y="790" type="line"/>
    </contour>
  </outline>
</glyph>
<glyph name="zero" format="1">
  <advance width="523"/>
  <unicode hex="0030"/>
  <outline>
    <contour>
      <point x="213" y="-11" type="curve" smooth="yes"/>
      <point x="83" y="-11"/>
      <point x="31" y="90"/>
      <point x="32" y="232" type="curve" smooth="yes"/>
      <point x="33" y="466"/>
      <point x="114" y="711"/>
      <point x="310" y="711" type="curve" smooth="yes"/>
      <point x="439" y="711"/>
      <point x="493" y="609"/>
      <point x="491" y="466" type="curve" smooth="yes"/>
      <point x="488" y="237"/>
      <point x="407" y="-11"/>
    </contour>
    <contour>
      <point x="364" y="464" type="curve" smooth="yes"/>
      <point x="365" y="547"/>
      <point x="342" y="589"/>
      <point x="294" y="589" type="curve" smooth="yes"/>
      <point x="208" y="589"/>
      <point x="161" y="421"/>
      <point x="159" y="237" type="curve" smooth="yes"/>
      <point x="158" y="154"/>
      <point x="181" y="111"/>
      <point x="230" y="111" type="curve" smooth="yes"/>
      <point x="314" y="111"/>
      <point x="361" y="275"/>
    </contour>
  </outline>
</glyph>
<glyph name="one" format="1">
  <advance width="315"/>
  <unicode hex="0031"/>
  <outline>
    <contour>
      <point x="176" y="0" type="line"/>
      <point x="51" y="0" type="line"/>
      <point x="143" y="521" type="line"/>
      <point x="48" y="521" type="line"/>
      <point x="62" y="599" type="line"/>
      <point x="132" y="606"/>
      <point x="169" y="648"/>
      <point x="192" y="700" type="curve"/>
      <point x="299" y="700" type="line"/>
    </contour>
  </outline>
</glyph>
<glyph name="two" format="1">
  <advance width="500"/>
  <unicode hex="0032"/>
  <outline>
    <contour>
      <point x="396" y="0" type="line"/>
      <point x="-5" y="0" type="line"/>
      <point x="38" y="202"/>
      <point x="112" y="294"/>
      <point x="247" y="382" type="curve" smooth="yes"/>
      <point x="333" y="438"/>
      <point x="357" y="468"/>
      <point x="357" y="516" type="curve" smooth="yes"/>
      <point x="357" y="561"/>
      <point x="330" y="586"/>
      <point x="289" y="586" type="curve" smooth="yes"/>
      <point x="244" y="586"/>
      <point x="202" y="558"/>
      <point x="167" y="523" type="curve"/>
      <point x="105" y="614" type="line"/>
      <point x="163" y="673"/>
      <point x="231" y="711"/>
      <point x="310" y="711" type="curve" smooth="yes"/>
      <point x="425" y="711"/>
      <point x="486" y="650"/>
      <point x="486" y="541" type="curve" smooth="yes"/>
      <point x="486" y="417"/>
      <point x="405" y="360"/>
      <point x="311" y="299" type="curve" smooth="yes"/>
      <point x="218" y="239"/>
      <point x="176" y="190"/>
      <point x="158" y="122" type="curve"/>
      <point x="418" y="122" type="line"/>
    </contour>
  </outline>
</glyph>
<glyph name="three" format="1">
  <advance width="508"/>
  <unicode hex="0033"/>
  <outline>
    <contour>
      <point x="192" y="-11" type="curve" smooth="yes"/>
      <point x="98" y="-11"/>
      <point x="25" y="29"/>
      <point x="-14" y="117" type="curve"/>
      <point x="97" y="187" type="line"/>
      <point x="125" y="132"/>
      <point x="161" y="112"/>
      <point x="208" y="112" type="curve" smooth="yes"/>
      <point x="270" y="112"/>
      <point x="316" y="154"/>
      <point x="316" y="226" type="curve" smooth="yes"/>
      <point x="316" y="283"/>
      <point x="279" y="308"/>
      <point x="220" y="308" type="curve" smooth="yes"/>
      <point x="172" y="308" type="line"/>
      <point x="194" y="429" type="line"/>
      <point x="243" y="429" type="line" smooth="yes"/>
      <point x="309" y="429"/>
      <point x="348" y="461"/>
      <point x="348" y="524" type="curve" smooth="yes"/>
      <point x="348" y="561"/>
      <point x="326" y="587"/>
      <point x="280" y="587" type="curve" smooth="yes"/>
      <point x="242" y="587"/>
      <point x="208" y="571"/>
      <point x="169" y="535" type="curve"/>
      <point x="99" y="620" type="line"/>
      <point x="149" y="673"/>
      <point x="215" y="711"/>
      <point x="302" y="711" type="curve" smooth="yes"/>
      <point x="414" y="711"/>
      <point x="477" y="642"/>
      <point x="477" y="545" type="curve" smooth="yes"/>
      <point x="477" y="449"/>
      <point x="420" y="398"/>
      <point x="352" y="375" type="curve"/>
      <point x="403" y="360"/>
      <point x="443" y="319"/>
      <point x="443" y="241" type="curve" smooth="yes"/>
      <point x="443" y="89"/>
      <point x="332" y="-11"/>
    </contour>
  </outline>
</glyph>
<glyph name="four" format="1">
  <advance width="510"/>
  <unicode hex="0034"/>
  <outline>
    <contour>
      <point x="458" y="143" type="line"/>
      <point x="386" y="143" type="line"/>
      <point x="361" y="0" type="line"/>
      <point x="244" y="0" type="line"/>
      <point x="269" y="143" type="line"/>
      <point x="-5" y="143" type="line"/>
      <point x="13" y="242" type="line"/>
      <point x="351" y="700" type="line"/>
      <point x="484" y="700" type="line"/>
      <point x="405" y="250" type="line"/>
      <point x="477" y="250" type="line"/>
    </contour>
    <contour>
      <point x="343" y="536" type="curve"/>
      <point x="328" y="509"/>
      <point x="305" y="474"/>
      <point x="275" y="432" type="curve" smooth="yes"/>
      <point x="202" y="330" type="line" smooth="yes"/>
      <point x="183" y="303"/>
      <point x="158" y="270"/>
      <point x="141" y="249" type="curve"/>
      <point x="161" y="249"/>
      <point x="192" y="250"/>
      <point x="223" y="250" type="curve" smooth="yes"/>
      <point x="288" y="250" type="line"/>
      <point x="318" y="419" type="line" smooth="yes"/>
      <point x="327" y="470"/>
      <point x="335" y="502"/>
    </contour>
  </outline>
</glyph>
<glyph name="five" format="1">
  <advance width="497"/>
  <unicode hex="0035"/>
  <outline>
    <contour>
      <point x="178" y="-11" type="curve" smooth="yes"/>
      <point x="104" y="-11"/>
      <point x="31" y="15"/>
      <point x="-14" y="65" type="curve"/>
      <point x="73" y="160" type="line"/>
      <point x="112" y="126"/>
      <point x="148" y="112"/>
      <point x="196" y="112" type="curve" smooth="yes"/>
      <point x="276" y="112"/>
      <point x="321" y="172"/>
      <point x="321" y="256" type="curve" smooth="yes"/>
      <point x="321" y="307"/>
      <point x="296" y="333"/>
      <point x="252" y="333" type="curve" smooth="yes"/>
      <point x="222" y="333"/>
      <point x="191" y="319"/>
      <point x="161" y="294" type="curve"/>
      <point x="67" y="342" type="line"/>
      <point x="147" y="700" type="line"/>
      <point x="492" y="700" type="line"/>
      <point x="471" y="579" type="line"/>
      <point x="237" y="579" type="line"/>
      <point x="201" y="426" type="line"/>
      <point x="229" y="442"/>
      <point x="257" y="452"/>
      <point x="303" y="452" type="curve" smooth="yes"/>
      <point x="395" y="452"/>
      <point x="449" y="392"/>
      <point x="449" y="275" type="curve" smooth="yes"/>
      <point x="449" y="93"/>
      <point x="333" y="-11"/>
    </contour>
  </outline>
</glyph>
<glyph name="six" format="1">
  <advance width="512"/>
  <unicode hex="0036"/>
  <outline>
    <contour>
      <point x="454" y="711" type="curve"/>
      <point x="437" y="586" type="line"/>
      <point x="290" y="578"/>
      <point x="214" y="487"/>
      <point x="179" y="399" type="curve"/>
      <point x="214" y="433"/>
      <point x="252" y="450"/>
      <point x="302" y="450" type="curve" smooth="yes"/>
      <point x="385" y="450"/>
      <point x="467" y="390"/>
      <point x="468" y="272" type="curve" smooth="yes"/>
      <point x="469" y="99"/>
      <point x="359" y="-11"/>
      <point x="218" y="-11" type="curve" smooth="yes"/>
      <point x="108" y="-11"/>
      <point x="29" y="58"/>
      <point x="30" y="215" type="curve" smooth="yes"/>
      <point x="31" y="440"/>
      <point x="158" y="688"/>
    </contour>
    <contour>
      <point x="151" y="198" type="curve" smooth="yes"/>
      <point x="151" y="145"/>
      <point x="174" y="105"/>
      <point x="236" y="105" type="curve" smooth="yes"/>
      <point x="306" y="105"/>
      <point x="344" y="180"/>
      <point x="344" y="251" type="curve" smooth="yes"/>
      <point x="344" y="303"/>
      <point x="318" y="339"/>
      <point x="265" y="339" type="curve" smooth="yes"/>
      <point x="183" y="339"/>
      <point x="151" y="270"/>
    </contour>
  </outline>
</glyph>
<glyph name="seven" format="1">
  <advance width="459"/>
  <unicode hex="0037"/>
  <outline>
    <contour>
      <point x="452" y="575" type="line"/>
      <point x="311" y="426"/>
      <point x="229" y="249"/>
      <point x="185" y="0" type="curve"/>
      <point x="65" y="0" type="line"/>
      <point x="106" y="233"/>
      <point x="191" y="427"/>
      <point x="324" y="584" type="curve"/>
      <point x="58" y="584" type="line"/>
      <point x="78" y="700" type="line"/>
      <point x="474" y="700" type="line"/>
    </contour>
  </outline>
</glyph>
<glyph name="eight" format="1">
  <advance width="518"/>
  <unicode hex="0038"/>
  <outline>
    <contour>
      <point x="214" y="-11" type="curve" smooth="yes"/>
      <point x="87" y="-11"/>
      <point x="21" y="67"/>
      <point x="21" y="175" type="curve" smooth="yes"/>
      <point x="21" y="288"/>
      <point x="86" y="353"/>
      <point x="147" y="378" type="curve"/>
      <point x="115" y="401"/>
      <point x="92" y="449"/>
      <point x="92" y="497" type="curve" smooth="yes"/>
      <point x="92" y="624"/>
      <point x="178" y="711"/>
      <point x="309" y="711" type="curve" smooth="yes"/>
      <point x="423" y="711"/>
      <point x="479" y="641"/>
      <point x="479" y="543" type="curve" smooth="yes"/>
      <point x="479" y="461"/>
      <point x="439" y="405"/>
      <point x="385" y="378" type="curve"/>
      <point x="426" y="357"/>
      <point x="463" y="314"/>
      <point x="463" y="241" type="curve" smooth="yes"/>
      <point x="463" y="98"/>
      <point x="373" y="-11"/>
    </contour>
    <contour>
      <point x="364" y="530" type="curve" smooth="yes"/>
      <point x="364" y="569"/>
      <point x="345" y="598"/>
      <point x="297" y="598" type="curve" smooth="yes"/>
      <point x="233" y="598"/>
      <point x="206" y="549"/>
      <point x="206" y="498" type="curve" smooth="yes"/>
      <point x="206" y="457"/>
      <point x="230" y="426"/>
      <point x="275" y="426" type="curve" smooth="yes"/>
      <point x="331" y="426"/>
      <point x="364" y="475"/>
    </contour>
    <contour>
      <point x="342" y="226" type="curve" smooth="yes"/>
      <point x="342" y="279"/>
      <point x="310" y="313"/>
      <point x="253" y="313" type="curve" smooth="yes"/>
      <point x="185" y="313"/>
      <point x="142" y="261"/>
      <point x="142" y="194" type="curve" smooth="yes"/>
      <point x="142" y="142"/>
      <point x="172" y="103"/>
      <point x="229" y="103" type="curve" smooth="yes"/>
      <point x="297" y="103"/>
      <point x="342" y="158"/>
    </contour>
  </outline>
</glyph>
<glyph name="nine" format="1">
  <advance width="512"/>
  <unicode hex="0039"/>
  <outline>
    <contour>
      <point x="64" y="-11" type="curve"/>
      <point x="81" y="114" type="line"/>
      <point x="228" y="122"/>
      <point x="304" y="213"/>
      <point x="339" y="301" type="curve"/>
      <point x="304" y="267"/>
      <point x="266" y="250"/>
      <point x="216" y="250" type="curve" smooth="yes"/>
      <point x="131" y="250"/>
      <point x="50" y="310"/>
      <point x="50" y="428" type="curve" smooth="yes"/>
      <point x="50" y="602"/>
      <point x="159" y="711"/>
      <point x="300" y="711" type="curve" smooth="yes"/>
      <point x="410" y="711"/>
      <point x="489" y="643"/>
      <point x="488" y="485" type="curve" smooth="yes"/>
      <point x="487" y="250"/>
      <point x="350" y="10"/>
    </contour>
    <contour>
      <point x="367" y="502" type="curve" smooth="yes"/>
      <point x="367" y="555"/>
      <point x="344" y="595"/>
      <point x="282" y="595" type="curve" smooth="yes"/>
      <point x="212" y="595"/>
      <point x="174" y="518"/>
      <point x="174" y="449" type="curve" smooth="yes"/>
      <point x="174" y="398"/>
      <point x="202" y="361"/>
      <point x="255" y="361" type="curve" smooth="yes"/>
      <point x="337" y="361"/>
      <point x="367" y="429"/>
    </contour>
  </outline>
</glyph>
<glyph name="colon" format="1">
  <advance width="246"/>
  <unicode hex="003A"/>
  <outline>
    <contour>
      <point x="224" y="452" type="curve" smooth="yes"/>
      <point x="224" y="407"/>
      <point x="186" y="369"/>
      <point x="141" y="369" type="curve" smooth="yes"/>
      <point x="96" y="369"/>
      <point x="58" y="407"/>
      <point x="58" y="452" type="curve" smooth="yes"/>
      <point x="58" y="497"/>
      <point x="96" y="535"/>
      <point x="141" y="535" type="curve" smooth="yes"/>
      <point x="186" y="535"/>
      <point x="224" y="497"/>
    </contour>
    <contour>
      <point x="157" y="72" type="curve" smooth="yes"/>
      <point x="157" y="27"/>
      <point x="119" y="-11"/>
      <point x="74" y="-11" type="curve" smooth="yes"/>
      <point x="29" y="-11"/>
      <point x="-9" y="27"/>
      <point x="-9" y="72" type="curve" smooth="yes"/>
      <point x="-9" y="117"/>
      <point x="29" y="155"/>
      <point x="74" y="155" type="curve" smooth="yes"/>
      <point x="119" y="155"/>
      <point x="157" y="117"/>
    </contour>
  </outline>
</glyph>
<glyph name="semicolon" format="1">
  <advance width="246"/>
  <unicode hex="003B"/>
  <outline>
    <contour>
      <point x="224" y="452" type="curve" smooth="yes"/>
      <point x="224" y="407"/>
      <point x="186" y="369"/>
      <point x="141" y="369" type="curve" smooth="yes"/>
      <point x="96" y="369"/>
      <point x="58" y="407"/>
      <point x="58" y="452" type="curve" smooth="yes"/>
      <point x="58" y="497"/>
      <point x="96" y="535"/>
      <point x="141" y="535" type="curve" smooth="yes"/>
      <point x="186" y="535"/>
      <point x="224" y="497"/>
    </contour>
    <contour>
      <point x="168" y="147" type="line"/>
      <point x="48" y="-112" type="line"/>
      <point x="-34" y="-112" type="line"/>
      <point x="25" y="147" type="line"/>
    </contour>
  </outline>
</glyph>
<glyph name="less" format="1">
  <advance width="410"/>
  <unicode hex="003C"/>
  <outline>
    <contour>
      <point x="353" y="28" type="line"/>
      <point x="42" y="297" type="line"/>
      <point x="42" y="391" type="line"/>
      <point x="353" y="660" type="line"/>
      <point x="353" y="501" type="line"/>
      <point x="163" y="345" type="line"/>
      <point x="353" y="188" type="line"/>
    </contour>
  </outline>
</glyph>
<glyph name="equal" format="1">
  <advance width="523"/>
  <unicode hex="003D"/>
  <outline>
    <contour>
      <point x="463" y="398" type="line"/>
      <point x="60" y="398" type="line"/>
      <point x="60" y="523" type="line"/>
      <point x="463" y="523" type="line"/>
    </contour>
    <contour>
      <point x="463" y="165" type="line"/>
      <point x="60" y="165" type="line"/>
      <point x="60" y="290" type="line"/>
      <point x="463" y="290" type="line"/>
    </contour>
  </outline>
</glyph>
<glyph name="question" format="1">
  <advance width="444"/>
  <unicode hex="003F"/>
  <outline>
    <contour>
      <point x="320" y="353" type="curve" smooth="yes"/>
      <point x="273" y="320"/>
      <point x="247" y="281"/>
      <point x="234" y="210" type="curve"/>
      <point x="116" y="210" type="line"/>
      <point x="135" y="320"/>
      <point x="169" y="372"/>
      <point x="263" y="437" type="curve" smooth="yes"/>
      <point x="295" y="459"/>
      <point x="319" y="492"/>
      <point x="319" y="526" type="curve" smooth="yes"/>
      <point x="319" y="563"/>
      <point x="298" y="588"/>
      <point x="248" y="588" type="curve" smooth="yes"/>
      <point x="205" y="588"/>
      <point x="163" y="562"/>
      <point x="120" y="518" type="curve"/>
      <point x="51" y="597" type="line"/>
      <point x="110" y="666"/>
      <point x="180" y="711"/>
      <point x="278" y="711" type="curve" smooth="yes"/>
      <point x="380" y="711"/>
      <point x="447" y="657"/>
      <point x="447" y="556" type="curve" smooth="yes"/>
      <point x="447" y="459"/>
      <point x="392" y="404"/>
    </contour>
    <contour>
      <point x="234" y="72" type="curve" smooth="yes"/>
      <point x="234" y="27"/>
      <point x="196" y="-11"/>
      <point x="151" y="-11" type="curve" smooth="yes"/>
      <point x="106" y="-11"/>
      <point x="68" y="27"/>
      <point x="68" y="72" type="curve" smooth="yes"/>
      <point x="68" y="117"/>
      <point x="106" y="155"/>
      <point x="151" y="155" type="curve" smooth="yes"/>
      <point x="196" y="155"/>
      <point x="234" y="117"/>
    </contour>
  </outline>
</glyph>
<glyph name="at" format="1">
  <advance width="636"/>
  <unicode hex="0040"/>
  <outline>
    <contour>
      <point x="596" y="370" type="curve" smooth="yes"/>
      <point x="596" y="247"/>
      <point x="567" y="152"/>
      <point x="478" y="152" type="curve" smooth="yes"/>
      <point x="439" y="152"/>
      <point x="408" y="175"/>
      <point x="397" y="205" type="curve"/>
      <point x="376" y="174"/>
      <point x="340" y="148"/>
      <point x="298" y="148" type="curve" smooth="yes"/>
      <point x="236" y="148"/>
      <point x="175" y="182"/>
      <point x="175" y="288" type="curve" smooth="yes"/>
      <point x="175" y="379"/>
      <point x="232" y="426"/>
      <point x="294" y="426" type="curve" smooth="yes"/>
      <point x="320" y="426"/>
      <point x="346" y="418"/>
      <point x="366" y="407" type="curve"/>
      <point x="366" y="446" type="line" smooth="yes"/>
      <point x="366" y="481"/>
      <point x="348" y="495"/>
      <point x="309" y="495" type="curve" smooth="yes"/>
      <point x="284" y="495"/>
      <point x="257" y="485"/>
      <point x="234" y="466" type="curve"/>
      <point x="204" y="528" type="line"/>
      <point x="239" y="555"/>
      <point x="279" y="567"/>
      <point x="315" y="567" type="curve" smooth="yes"/>
      <point x="397" y="567"/>
      <point x="444" y="526"/>
      <point x="444" y="440" type="curve" smooth="yes"/>
      <point x="444" y="266" type="line" smooth="yes"/>
      <point x="444" y="233"/>
      <point x="452" y="210"/>
      <point x="481" y="210" type="curve" smooth="yes"/>
      <point x="521" y="210"/>
      <point x="539" y="263"/>
      <point x="539" y="372" type="curve" smooth="yes"/>
      <point x="539" y="557"/>
      <point x="449" y="653"/>
      <point x="320" y="653" type="curve" smooth="yes"/>
      <point x="187" y="653"/>
      <point x="99" y="534"/>
      <point x="99" y="352" type="curve" smooth="yes"/>
      <point x="99" y="155"/>
      <point x="186" y="47"/>
      <point x="320" y="47" type="curve" smooth="yes"/>
      <point x="353" y="47"/>
      <point x="385" y="52"/>
      <point x="421" y="72" type="curve"/>
      <point x="443" y="25" type="line"/>
      <point x="402" y="-1"/>
      <point x="362" y="-11"/>
      <point x="318" y="-11" type="curve" smooth="yes"/>
      <point x="151" y="-11"/>
      <point x="40" y="117"/>
      <point x="40" y="350" type="curve" smooth="yes"/>
      <point x="40" y="569"/>
      <point x="160" y="711"/>
      <point x="320" y="711" type="curve" smooth="yes"/>
      <point x="484" y="711"/>
      <point x="596" y="581"/>
    </contour>
    <contour>
      <point x="366" y="271" type="curve"/>
      <point x="366" y="329" type="line"/>
      <point x="353" y="344"/>
      <point x="335" y="355"/>
      <point x="306" y="355" type="curve" smooth="yes"/>
      <point x="271" y="355"/>
      <point x="254" y="327"/>
      <point x="254" y="294" type="curve" smooth="yes"/>
      <point x="254" y="252"/>
      <point x="266" y="222"/>
      <point x="306" y="222" type="curve" smooth="yes"/>
      <point x="331" y="222"/>
      <point x="354" y="241"/>
    </contour>
  </outline>
</glyph>
<glyph name="A" format="1">
  <advance width="516"/>
  <unicode hex="0041"/>
  <outline>
    <contour>
      <point x="433" y="0" type="line"/>
      <point x="304" y="0" type="line"/>
      <point x="297" y="146" type="line"/>
      <point x="140" y="146" type="line"/>
      <point x="81" y="0" type="line"/>
      <point x="-47" y="0" type="line"/>
      <point x="255" y="700" type="line"/>
      <point x="377" y="700" type="line"/>
    </contour>
    <contour>
      <point x="290" y="263" type="line"/>
      <point x="286" y="346" type="line" smooth="yes"/>
      <point x="283" y="400"/>
      <point x="282" y="481"/>
      <point x="283" y="516" type="curve"/>
      <point x="272" y="480"/>
      <point x="243" y="404"/>
      <point x="221" y="348" type="curve" smooth="yes"/>
      <point x="187" y="263" type="line"/>
    </contour>
  </outline>
</glyph>
<glyph name="B" format="1">
  <advance width="523"/>
  <unicode hex="0042"/>
  <outline>
    <contour>
      <point x="193" y="0" type="curve" smooth="yes"/>
      <point x="11" y="0" type="line"/>
      <point x="134" y="700" type="line"/>
      <point x="323" y="700" type="line" smooth="yes"/>
      <point x="438" y="700"/>
      <point x="500" y="641"/>
      <point x="500" y="546" type="curve" smooth="yes"/>
      <point x="500" y="467"/>
      <point x="460" y="404"/>
      <point x="388" y="376" type="curve"/>
      <point x="434" y="357"/>
      <point x="465" y="314"/>
      <point x="465" y="247" type="curve" smooth="yes"/>
      <point x="465" y="89"/>
      <point x="354" y="0"/>
    </contour>
    <contour>
      <point x="375" y="525" type="curve" smooth="yes"/>
      <point x="375" y="562"/>
      <point x="357" y="585"/>
      <point x="304" y="585" type="curve" smooth="yes"/>
      <point x="236" y="585" type="line"/>
      <point x="209" y="432" type="line"/>
      <point x="280" y="432" type="line" smooth="yes"/>
      <point x="350" y="432"/>
      <point x="375" y="476"/>
    </contour>
    <contour>
      <point x="341" y="241" type="curve" smooth="yes"/>
      <point x="341" y="295"/>
      <point x="315" y="320"/>
      <point x="252" y="320" type="curve" smooth="yes"/>
      <point x="189" y="320" type="line"/>
      <point x="153" y="115" type="line"/>
      <point x="220" y="115" type="line" smooth="yes"/>
      <point x="303" y="115"/>
      <point x="341" y="169"/>
    </contour>
  </outline>
</glyph>
<glyph name="C" format="1">
  <advance width="470"/>
  <unicode hex="0043"/>
  <outline>
    <contour>
      <point x="442" y="168" type="line"/>
      <point x="393" y="50"/>
      <point x="323" y="-11"/>
      <point x="216" y="-11" type="curve" smooth="yes"/>
      <point x="89" y="-11"/>
      <point x="33" y="95"/>
      <point x="33" y="244" type="curve" smooth="yes"/>
      <point x="33" y="486"/>
      <point x="136" y="711"/>
      <point x="319" y="711" type="curve" smooth="yes"/>
      <point x="438" y="711"/>
      <point x="480" y="635"/>
      <point x="493" y="534" type="curve"/>
      <point x="370" y="496" type="line"/>
      <point x="362" y="560"/>
      <point x="346" y="586"/>
      <point x="300" y="586" type="curve" smooth="yes"/>
      <point x="217" y="586"/>
      <point x="159" y="422"/>
      <point x="159" y="256" type="curve" smooth="yes"/>
      <point x="159" y="165"/>
      <point x="183" y="114"/>
      <point x="235" y="114" type="curve" smooth="yes"/>
      <point x="278" y="114"/>
      <point x="307" y="139"/>
      <point x="341" y="214" type="curve"/>
    </contour>
  </outline>
</glyph>
<glyph name="D" format="1">
  <advance width="530"/>
  <unicode hex="0044"/>
  <outline>
    <contour>
      <point x="166" y="0" type="curve" smooth="yes"/>
      <point x="11" y="0" type="line"/>
      <point x="134" y="700" type="line"/>
      <point x="287" y="700" type="line" smooth="yes"/>
      <point x="426" y="700"/>
      <point x="507" y="628"/>
      <point x="507" y="464" type="curve" smooth="yes"/>
      <point x="507" y="158"/>
      <point x="358" y="0"/>
    </contour>
    <contour>
      <point x="379" y="445" type="curve" smooth="yes"/>
      <point x="379" y="524"/>
      <point x="353" y="578"/>
      <point x="271" y="578" type="curve" smooth="yes"/>
      <point x="238" y="578" type="line"/>
      <point x="158" y="122" type="line"/>
      <point x="191" y="122" type="line" smooth="yes"/>
      <point x="333" y="122"/>
      <point x="379" y="299"/>
    </contour>
  </outline>
</glyph>
<glyph name="E" format="1">
  <advance width="452"/>
  <unicode hex="0045"/>
  <outline>
    <contour>
      <point x="375" y="0" type="line"/>
      <point x="11" y="0" type="line"/>
      <point x="134" y="700" type="line"/>
      <point x="489" y="700" type="line"/>
      <point x="468" y="580" type="line"/>
      <point x="238" y="580" type="line"/>
      <point x="212" y="432" type="line"/>
      <point x="365" y="432" type="line"/>
      <point x="344" y="314" type="line"/>
      <point x="191" y="314" type="line"/>
      <point x="157" y="120" type="line"/>
      <point x="396" y="120" type="line"/>
    </contour>
  </outline>
</glyph>
<glyph name="F" format="1">
  <advance width="444"/>
  <unicode hex="0046"/>
  <outline>
    <contour>
      <point x="478" y="580" type="line"/>
      <point x="238" y="580" type="line"/>
      <point x="211" y="424" type="line"/>
      <point x="371" y="424" type="line"/>
      <point x="349" y="303" type="line"/>
      <point x="189" y="303" type="line"/>
      <point x="136" y="0" type="line"/>
      <point x="11" y="0" type="line"/>
      <point x="134" y="700" type="line"/>
      <point x="499" y="700" type="line"/>
    </contour>
  </outline>
</glyph>
<glyph name="G" format="1">
  <advance width="538"/>
  <unicode hex="0047"/>
  <outline>
    <contour>
      <point x="481" y="253" type="line" smooth="yes"/>
      <point x="459" y="85"/>
      <point x="366" y="-11"/>
      <point x="231" y="-11" type="curve" smooth="yes"/>
      <point x="94" y="-11"/>
      <point x="32" y="101"/>
      <point x="33" y="256" type="curve" smooth="yes"/>
      <point x="35" y="487"/>
      <point x="136" y="711"/>
      <point x="319" y="711" type="curve" smooth="yes"/>
      <point x="425" y="711"/>
      <point x="500" y="655"/>
      <point x="513" y="534" type="curve"/>
      <point x="390" y="496" type="line"/>
      <point x="382" y="559"/>
      <point x="353" y="586"/>
      <point x="305" y="586" type="curve" smooth="yes"/>
      <point x="217" y="586"/>
      <point x="163" y="434"/>
      <point x="160" y="260" type="curve" smooth="yes"/>
      <point x="158" y="165"/>
      <point x="185" y="115"/>
      <point x="244" y="114" type="curve" smooth="yes"/>
      <point x="317" y="113"/>
      <point x="345" y="152"/>
      <point x="360" y="256" type="curve"/>
      <point x="260" y="256" type="line"/>
      <point x="276" y="373" type="line"/>
      <point x="497" y="373" type="line"/>
    </contour>
  </outline>
</glyph>
<glyph name="H" format="1">
  <advance width="535"/>
  <unicode hex="0048"/>
  <outline>
    <contour>
      <point x="409" y="0" type="line"/>
      <point x="284" y="0" type="line"/>
      <point x="337" y="302" type="line"/>
      <point x="181" y="302" type="line"/>
      <point x="128" y="0" type="line"/>
      <point x="3" y="0" type="line"/>
      <point x="126" y="700" type="line"/>
      <point x="251" y="700" type="line"/>
      <point x="203" y="424" type="line"/>
      <point x="359" y="424" type="line"/>
      <point x="407" y="700" type="line"/>
      <point x="532" y="700" type="line"/>
    </contour>
  </outline>
</glyph>
<glyph name="I" format="1">
  <advance width="264"/>
  <unicode hex="0049"/>
  <outline>
    <contour>
      <point x="133" y="0" type="line"/>
      <point x="8" y="0" type="line"/>
      <point x="131" y="700" type="line"/>
      <point x="256" y="700" type="line"/>
    </contour>
  </outline>
</glyph>
<glyph name="J" format="1">
  <advance width="476"/>
  <unicode hex="004A"/>
  <outline>
    <contour>
      <point x="398" y="270" type="line" smooth="yes"/>
      <point x="367" y="93"/>
      <point x="311" y="-11"/>
      <point x="162" y="-11" type="curve" smooth="yes"/>
      <point x="49" y="-11"/>
      <point x="-18" y="63"/>
      <point x="-9" y="197" type="curve"/>
      <point x="109" y="222" type="line"/>
      <point x="105" y="163"/>
      <point x="120" y="113"/>
      <point x="172" y="113" type="curve" smooth="yes"/>
      <point x="224" y="113"/>
      <point x="252" y="150"/>
      <point x="272" y="266" type="curve" smooth="yes"/>
      <point x="348" y="700" type="line"/>
      <point x="473" y="700" type="line"/>
    </contour>
  </outline>
</glyph>
<glyph name="K" format="1">
  <advance width="504"/>
  <unicode hex="004B"/>
  <outline>
    <contour>
      <point x="444" y="0" type="line"/>
      <point x="317" y="0" type="line"/>
      <point x="252" y="323" type="line"/>
      <point x="164" y="203" type="line"/>
      <point x="128" y="0" type="line"/>
      <point x="3" y="0" type="line"/>
      <point x="126" y="700" type="line"/>
      <point x="251" y="700" type="line"/>
      <point x="215" y="493" type="line" smooth="yes"/>
      <point x="208" y="452"/>
      <point x="201" y="417"/>
      <point x="194" y="386" type="curve"/>
      <point x="213" y="415"/>
      <point x="243" y="459"/>
      <point x="268" y="494" type="curve" smooth="yes"/>
      <point x="413" y="700" type="line"/>
      <point x="546" y="700" type="line"/>
      <point x="351" y="438" type="line"/>
    </contour>
  </outline>
</glyph>
<glyph name="L" format="1">
  <advance width="409"/>
  <unicode hex="004C"/>
  <outline>
    <contour>
      <point x="343" y="0" type="line"/>
      <point x="3" y="0" type="line"/>
      <point x="126" y="700" type="line"/>
      <point x="251" y="700" type="line"/>
      <point x="150" y="122" type="line"/>
      <point x="365" y="122" type="line"/>
    </contour>
  </outline>
</glyph>
<glyph name="M" format="1">
  <advance width="639"/>
  <unicode hex="004D"/>
  <outline>
    <contour>
      <point x="513" y="0" type="line"/>
      <point x="399" y="0" type="line"/>
      <point x="439" y="226" type="line" smooth="yes"/>
      <point x="454" y="309"/>
      <point x="468" y="386"/>
      <point x="478" y="438" type="curve"/>
      <point x="455" y="388"/>
      <point x="419" y="309"/>
      <point x="379" y="230" type="curve" smooth="yes"/>
      <point x="254" y="-18" type="line"/>
      <point x="217" y="230" type="line" smooth="yes"/>
      <point x="205" y="309"/>
      <point x="195" y="388"/>
      <point x="190" y="438" type="curve"/>
      <point x="182" y="386"/>
      <point x="170" y="309"/>
      <point x="155" y="226" type="curve" smooth="yes"/>
      <point x="115" y="0" type="line"/>
      <point x="3" y="0" type="line"/>
      <point x="126" y="700" type="line"/>
      <point x="252" y="700" type="line"/>
      <point x="290" y="441" type="line" smooth="yes"/>
      <point x="300" y="376"/>
      <point x="309" y="316"/>
      <point x="309" y="283" type="curve"/>
      <point x="322" y="318"/>
      <point x="353" y="379"/>
      <point x="384" y="441" type="curve" smooth="yes"/>
      <point x="512" y="700" type="line"/>
      <point x="636" y="700" type="line"/>
    </contour>
  </outline>
</glyph>
<glyph name="N" format="1">
  <advance width="539"/>
  <unicode hex="004E"/>
  <outline>
    <contour>
      <point x="413" y="0" type="line"/>
      <point x="295" y="0" type="line"/>
      <point x="223" y="312" type="line" smooth="yes"/>
      <point x="213" y="356"/>
      <point x="201" y="413"/>
      <point x="195" y="454" type="curve"/>
      <point x="188" y="411"/>
      <point x="177" y="339"/>
      <point x="169" y="295" type="curve" smooth="yes"/>
      <point x="117" y="0" type="line"/>
      <point x="3" y="0" type="line"/>
      <point x="126" y="700" type="line"/>
      <point x="252" y="700" type="line"/>
      <point x="321" y="393" type="line" smooth="yes"/>
      <point x="330" y="351"/>
      <point x="341" y="288"/>
      <point x="347" y="247" type="curve"/>
      <point x="353" y="290"/>
      <point x="363" y="366"/>
      <point x="371" y="410" type="curve" smooth="yes"/>
      <point x="422" y="700" type="line"/>
      <point x="536" y="700" type="line"/>
    </contour>
  </outline>
</glyph>
<glyph name="O" format="1">
  <advance width="541"/>
  <unicode hex="004F"/>
  <outline>
    <contour>
      <point x="224" y="-11" type="curve" smooth="yes"/>
      <point x="89" y="-11"/>
      <point x="31" y="98"/>
      <point x="33" y="250" type="curve" smooth="yes"/>
      <point x="36" y="487"/>
      <point x="128" y="711"/>
      <point x="317" y="711" type="curve" smooth="yes"/>
      <point x="451" y="711"/>
      <point x="512" y="603"/>
      <point x="509" y="452" type="curve" smooth="yes"/>
      <point x="504" y="223"/>
      <point x="416" y="-11"/>
    </contour>
    <contour>
      <point x="382" y="449" type="curve" smooth="yes"/>
      <point x="384" y="537"/>
      <point x="358" y="586"/>
      <point x="303" y="586" type="curve" smooth="yes"/>
      <point x="209" y="586"/>
      <point x="163" y="413"/>
      <point x="160" y="251" type="curve" smooth="yes"/>
      <point x="158" y="163"/>
      <point x="182" y="114"/>
      <point x="238" y="114" type="curve" smooth="yes"/>
      <point x="330" y="114"/>
      <point x="379" y="287"/>
    </contour>
  </outline>
</glyph>
<glyph name="P" format="1">
  <advance width="494"/>
  <unicode hex="0050"/>
  <outline>
    <contour>
      <point x="232" y="251" type="curve" smooth="yes"/>
      <point x="180" y="251" type="line"/>
      <point x="136" y="0" type="line"/>
      <point x="11" y="0" type="line"/>
      <point x="134" y="700" type="line"/>
      <point x="316" y="700" type="line" smooth="yes"/>
      <point x="437" y="700"/>
      <point x="503" y="638"/>
      <point x="503" y="516" type="curve" smooth="yes"/>
      <point x="503" y="332"/>
      <point x="362" y="251"/>
    </contour>
    <contour>
      <point x="376" y="496" type="curve" smooth="yes"/>
      <point x="376" y="544"/>
      <point x="358" y="578"/>
      <point x="294" y="578" type="curve" smooth="yes"/>
      <point x="238" y="578" type="line"/>
      <point x="202" y="373" type="line"/>
      <point x="260" y="373" type="line" smooth="yes"/>
      <point x="331" y="373"/>
      <point x="376" y="418"/>
    </contour>
  </outline>
</glyph>
<glyph name="Q" format="1">
  <advance width="541"/>
  <unicode hex="0051"/>
  <outline>
    <contour>
      <point x="384" y="68" type="curve"/>
      <point x="403" y="27"/>
      <point x="420" y="-11"/>
      <point x="420" y="-11" type="curve"/>
      <point x="328" y="-63" type="line"/>
      <point x="297" y="4" type="line"/>
      <point x="274" y="-6"/>
      <point x="248" y="-11"/>
      <point x="220" y="-11" type="curve" smooth="yes"/>
      <point x="85" y="-11"/>
      <point x="31" y="98"/>
      <point x="33" y="250" type="curve" smooth="yes"/>
      <point x="36" y="487"/>
      <point x="128" y="711"/>
      <point x="317" y="711" type="curve" smooth="yes"/>
      <point x="451" y="711"/>
      <point x="512" y="603"/>
      <point x="509" y="452" type="curve" smooth="yes"/>
      <point x="506" y="305"/>
      <point x="462" y="156"/>
    </contour>
    <contour>
      <point x="250" y="108" type="curve"/>
      <point x="212" y="190" type="line"/>
      <point x="304" y="242" type="line"/>
      <point x="304" y="242"/>
      <point x="332" y="182"/>
      <point x="331" y="182" type="curve"/>
      <point x="362" y="242"/>
      <point x="380" y="336"/>
      <point x="382" y="449" type="curve" smooth="yes"/>
      <point x="384" y="537"/>
      <point x="358" y="586"/>
      <point x="303" y="586" type="curve" smooth="yes"/>
      <point x="209" y="586"/>
      <point x="163" y="413"/>
      <point x="160" y="251" type="curve" smooth="yes"/>
      <point x="158" y="163"/>
      <point x="179" y="107"/>
      <point x="235" y="107" type="curve" smooth="yes"/>
      <point x="240" y="107"/>
      <point x="245" y="107"/>
    </contour>
  </outline>
</glyph>
<glyph name="R" format="1">
  <advance width="510"/>
  <unicode hex="0052"/>
  <outline>
    <contour>
      <point x="422" y="0" type="line"/>
      <point x="296" y="0" type="line"/>
      <point x="234" y="266" type="line"/>
      <point x="183" y="266" type="line"/>
      <point x="136" y="0" type="line"/>
      <point x="11" y="0" type="line"/>
      <point x="134" y="700" type="line"/>
      <point x="320" y="700" type="line" smooth="yes"/>
      <point x="441" y="700"/>
      <point x="508" y="641"/>
      <point x="508" y="521" type="curve" smooth="yes"/>
      <point x="508" y="395"/>
      <point x="437" y="327"/>
      <point x="353" y="291" type="curve"/>
    </contour>
    <contour>
      <point x="381" y="500" type="curve" smooth="yes"/>
      <point x="381" y="551"/>
      <point x="354" y="578"/>
      <point x="293" y="578" type="curve" smooth="yes"/>
      <point x="238" y="578" type="line"/>
      <point x="204" y="383" type="line"/>
      <point x="266" y="383" type="line" smooth="yes"/>
      <point x="337" y="383"/>
      <point x="380" y="424"/>
    </contour>
  </outline>
</glyph>
<glyph name="S" format="1">
  <advance width="471"/>
  <unicode hex="0053"/>
  <outline>
    <contour>
      <point x="182" y="-11" type="curve" smooth="yes"/>
      <point x="87" y="-11"/>
      <point x="15" y="42"/>
      <point x="-23" y="102" type="curve"/>
      <point x="73" y="186" type="line"/>
      <point x="105" y="135"/>
      <point x="152" y="108"/>
      <point x="194" y="108" type="curve" smooth="yes"/>
      <point x="251" y="108"/>
      <point x="281" y="145"/>
      <point x="281" y="188" type="curve" smooth="yes"/>
      <point x="281" y="224"/>
      <point x="258" y="261"/>
      <point x="201" y="303" type="curve" smooth="yes"/>
      <point x="126" y="358"/>
      <point x="68" y="417"/>
      <point x="68" y="506" type="curve" smooth="yes"/>
      <point x="68" y="612"/>
      <point x="153" y="711"/>
      <point x="282" y="711" type="curve" smooth="yes"/>
      <point x="369" y="711"/>
      <point x="432" y="676"/>
      <point x="471" y="611" type="curve"/>
      <point x="373" y="528" type="line"/>
      <point x="340" y="574"/>
      <point x="312" y="593"/>
      <point x="272" y="593" type="curve" smooth="yes"/>
      <point x="231" y="593"/>
      <point x="198" y="568"/>
      <point x="198" y="525" type="curve" smooth="yes"/>
      <point x="198" y="490"/>
      <point x="218" y="463"/>
      <point x="275" y="419" type="curve" smooth="yes"/>
      <point x="357" y="357"/>
      <point x="412" y="303"/>
      <point x="412" y="206" type="curve" smooth="yes"/>
      <point x="412" y="85"/>
      <point x="326" y="-11"/>
    </contour>
  </outline>
</glyph>
<glyph name="T" format="1">
  <advance width="445"/>
  <unicode hex="0054"/>
  <outline>
    <contour>
      <point x="473" y="580" type="line"/>
      <point x="328" y="580" type="line"/>
      <point x="226" y="0" type="line"/>
      <point x="101" y="0" type="line"/>
      <point x="203" y="580" type="line"/>
      <point x="58" y="580" type="line"/>
      <point x="79" y="700" type="line"/>
      <point x="494" y="700" type="line"/>
    </contour>
  </outline>
</glyph>
<glyph name="U" format="1">
  <advance width="541"/>
  <unicode hex="0055"/>
  <outline>
    <contour>
      <point x="468" y="280" type="line" smooth="yes"/>
      <point x="459" y="227"/>
      <point x="448" y="177"/>
      <point x="432" y="139" type="curve" smooth="yes"/>
      <point x="392" y="42"/>
      <point x="327" y="-11"/>
      <point x="223" y="-11" type="curve" smooth="yes"/>
      <point x="77" y="-11"/>
      <point x="23" y="93"/>
      <point x="55" y="273" type="curve" smooth="yes"/>
      <point x="130" y="700" type="line"/>
      <point x="255" y="700" type="line"/>
      <point x="179" y="264" type="line" smooth="yes"/>
      <point x="159" y="151"/>
      <point x="173" y="112"/>
      <point x="238" y="112" type="curve" smooth="yes"/>
      <point x="282" y="112"/>
      <point x="307" y="136"/>
      <point x="324" y="192" type="curve" smooth="yes"/>
      <point x="327" y="201"/>
      <point x="337" y="243"/>
      <point x="343" y="278" type="curve" smooth="yes"/>
      <point x="417" y="700" type="line"/>
      <point x="542" y="700" type="line"/>
    </contour>
  </outline>
</glyph>
<glyph name="V" format="1">
  <advance width="492"/>
  <unicode hex="0056"/>
  <outline>
    <contour>
      <point x="539" y="700" type="line"/>
      <point x="249" y="0" type="line"/>
      <point x="127" y="0" type="line"/>
      <point x="81" y="700" type="line"/>
      <point x="210" y="700" type="line"/>
      <point x="219" y="362" type="line" smooth="yes"/>
      <point x="220" y="310"/>
      <point x="222" y="215"/>
      <point x="220" y="184" type="curve"/>
      <point x="230" y="215"/>
      <point x="266" y="312"/>
      <point x="285" y="362" type="curve" smooth="yes"/>
      <point x="411" y="700" type="line"/>
    </contour>
  </outline>
</glyph>
<glyph name="W" format="1">
  <advance width="659"/>
  <unicode hex="0057"/>
  <outline>
    <contour>
      <point x="697" y="700" type="line"/>
      <point x="461" y="0" type="line"/>
      <point x="353" y="0" type="line"/>
      <point x="346" y="294" type="line" smooth="yes"/>
      <point x="344" y="362"/>
      <point x="344" y="422"/>
      <point x="346" y="470" type="curve"/>
      <point x="330" y="421"/>
      <point x="310" y="362"/>
      <point x="284" y="294" type="curve" smooth="yes"/>
      <point x="173" y="0" type="line"/>
      <point x="68" y="0" type="line"/>
      <point x="78" y="700" type="line"/>
      <point x="196" y="700" type="line"/>
      <point x="184" y="439" type="line" smooth="yes"/>
      <point x="182" y="388"/>
      <point x="175" y="289"/>
      <point x="171" y="241" type="curve"/>
      <point x="186" y="289"/>
      <point x="220" y="388"/>
      <point x="239" y="439" type="curve" smooth="yes"/>
      <point x="336" y="700" type="line"/>
      <point x="439" y="700" type="line"/>
      <point x="444" y="439" type="line" smooth="yes"/>
      <point x="445" y="388"/>
      <point x="446" y="289"/>
      <point x="443" y="241" type="curve"/>
      <point x="457" y="289"/>
      <point x="484" y="388"/>
      <point x="500" y="439" type="curve" smooth="yes"/>
      <point x="580" y="700" type="line"/>
    </contour>
  </outline>
</glyph>
<glyph name="X" format="1">
  <advance width="494"/>
  <unicode hex="0058"/>
  <outline>
    <contour>
      <point x="422" y="0" type="line"/>
      <point x="287" y="0" type="line"/>
      <point x="252" y="132" type="line" smooth="yes"/>
      <point x="244" y="163"/>
      <point x="234" y="211"/>
      <point x="229" y="239" type="curve"/>
      <point x="215" y="211"/>
      <point x="187" y="164"/>
      <point x="168" y="132" type="curve" smooth="yes"/>
      <point x="87" y="0" type="line"/>
      <point x="-48" y="0" type="line"/>
      <point x="182" y="359" type="line"/>
      <point x="84" y="700" type="line"/>
      <point x="219" y="700" type="line"/>
      <point x="249" y="588" type="line" smooth="yes"/>
      <point x="257" y="557"/>
      <point x="268" y="509"/>
      <point x="272" y="481" type="curve"/>
      <point x="287" y="509"/>
      <point x="314" y="556"/>
      <point x="333" y="588" type="curve" smooth="yes"/>
      <point x="401" y="700" type="line"/>
      <point x="536" y="700" type="line"/>
      <point x="317" y="360" type="line"/>
    </contour>
  </outline>
</glyph>
<glyph name="Y" format="1">
  <advance width="500"/>
  <unicode hex="0059"/>
  <outline>
    <contour>
      <point x="555" y="700" type="line"/>
      <point x="298" y="264" type="line"/>
      <point x="251" y="0" type="line"/>
      <point x="126" y="0" type="line"/>
      <point x="172" y="262" type="line"/>
      <point x="69" y="700" type="line"/>
      <point x="207" y="700" type="line"/>
      <point x="236" y="558" type="line" smooth="yes"/>
      <point x="248" y="497"/>
      <point x="259" y="428"/>
      <point x="260" y="395" type="curve"/>
      <point x="272" y="428"/>
      <point x="308" y="500"/>
      <point x="340" y="558" type="curve" smooth="yes"/>
      <point x="419" y="700" type="line"/>
    </contour>
  </outline>
</glyph>
<glyph name="Z" format="1">
  <advance width="449"/>
  <unicode hex="005A"/>
  <outline>
    <contour>
      <point x="359" y="0" type="line"/>
      <point x="-23" y="0" type="line"/>
      <point x="-3" y="111" type="line"/>
      <point x="268" y="501" type="line" smooth="yes"/>
      <point x="293" y="536"/>
      <point x="315" y="565"/>
      <point x="334" y="589" type="curve"/>
      <point x="309" y="588"/>
      <point x="280" y="587"/>
      <point x="245" y="587" type="curve" smooth="yes"/>
      <point x="98" y="587" type="line"/>
      <point x="117" y="700" type="line"/>
      <point x="482" y="700" type="line"/>
      <point x="463" y="589" type="line"/>
      <point x="193" y="199" type="line" smooth="yes"/>
      <point x="169" y="164"/>
      <point x="147" y="135"/>
      <point x="128" y="111" type="curve"/>
      <point x="153" y="112"/>
      <point x="182" y="113"/>
      <point x="217" y="113" type="curve" smooth="yes"/>
      <point x="379" y="113" type="line"/>
    </contour>
  </outline>
</glyph>
<glyph name="bracketleft" format="1">
  <advance width="365"/>
  <unicode hex="005B"/>
  <outline>
    <contour>
      <point x="255" y="-110" type="line"/>
      <point x="18" y="-110" type="line"/>
      <point x="160" y="700" type="line"/>
      <point x="397" y="700" type="line"/>
      <point x="380" y="600" type="line"/>
      <point x="266" y="600" type="line"/>
      <point x="158" y="-10" type="line"/>
      <point x="272" y="-10" type="line"/>
    </contour>
  </outline>
</glyph>
<glyph name="backslash" format="1">
  <advance width="404"/>
  <unicode hex="005C"/>
  <outline>
    <contour>
      <point x="325" y="-90" type="line"/>
      <point x="200" y="-90" type="line"/>
      <point x="79" y="790" type="line"/>
      <point x="204" y="790" type="line"/>
    </contour>
  </outline>
</glyph>
<glyph name="bracketright" format="1">
  <advance width="365"/>
  <unicode hex="005D"/>
  <outline>
    <contour>
      <point x="177" y="-110" type="line"/>
      <point x="-60" y="-110" type="line"/>
      <point x="-43" y="-10" type="line"/>
      <point x="71" y="-10" type="line"/>
      <point x="179" y="600" type="line"/>
      <point x="65" y="600" type="line"/>
      <point x="82" y="700" type="line"/>
      <point x="319" y="700" type="line"/>
    </contour>
  </outline>
</glyph>
<glyph name="asciicircum" format="1">
  <advance width="464"/>
  <unicode hex="005E"/>
  <outline>
    <contour>
      <point x="441" y="382" type="line"/>
      <point x="319" y="382" type="line"/>
      <point x="273" y="578" type="line"/>
      <point x="157" y="382" type="line"/>
      <point x="37" y="382" type="line"/>
      <point x="236" y="700" type="line"/>
      <point x="354" y="700" type="line"/>
    </contour>
  </outline>
</glyph>
<glyph name="underscore" format="1">
  <advance width="380"/>
  <unicode hex="005F"/>
  <outline>
    <contour>
      <point x="299" y="-177" type="line"/>
      <point x="-81" y="-177" type="line"/>
      <point x="-63" y="-72" type="line"/>
      <point x="317" y="-72" type="line"/>
    </contour>
  </outline>
</glyph>
<glyph name="grave" format="1">
  <advance width="400"/>
  <unicode hex="0060"/>
  <outline>
    <contour>
      <point x="312" y="595" type="line"/>
      <point x="222" y="595" type="line"/>
      <point x="102" y="755" type="line"/>
      <point x="253" y="755" type="line"/>
    </contour>
  </outline>
</glyph>
<glyph name="a" format="1">
  <advance width="444"/>
  <unicode hex="0061"/>
  <outline>
    <contour>
      <point x="329" y="0" type="line"/>
      <point x="211" y="0" type="line"/>
      <point x="217" y="36" type="line"/>
      <point x="189" y="6"/>
      <point x="149" y="-10"/>
      <point x="115" y="-10" type="curve" smooth="yes"/>
      <point x="35" y="-10"/>
      <point x="-11" y="46"/>
      <point x="-11" y="133" type="curve" smooth="yes"/>
      <point x="-11" y="265"/>
      <point x="80" y="347"/>
      <point x="184" y="347" type="curve" smooth="yes"/>
      <point x="228" y="347"/>
      <point x="252" y="337"/>
      <point x="268" y="326" type="curve"/>
      <point x="276" y="366" type="line" smooth="yes"/>
      <point x="277" y="373"/>
      <point x="278" y="379"/>
      <point x="278" y="385" type="curve" smooth="yes"/>
      <point x="277" y="412"/>
      <point x="262" y="431"/>
      <point x="224" y="431" type="curve" smooth="yes"/>
      <point x="180" y="431"/>
      <point x="145" y="418"/>
      <point x="112" y="399" type="curve"/>
      <point x="80" y="485" type="line"/>
      <point x="131" y="516"/>
      <point x="187" y="536"/>
      <point x="251" y="536" type="curve" smooth="yes"/>
      <point x="353" y="536"/>
      <point x="398" y="495"/>
      <point x="398" y="413" type="curve" smooth="yes"/>
      <point x="398" y="397"/>
      <point x="396" y="380"/>
      <point x="393" y="361" type="curve" smooth="yes"/>
    </contour>
    <contour>
      <point x="235" y="138" type="curve"/>
      <point x="250" y="222" type="line"/>
      <point x="234" y="238"/>
      <point x="215" y="247"/>
      <point x="183" y="247" type="curve" smooth="yes"/>
      <point x="144" y="247"/>
      <point x="111" y="208"/>
      <point x="111" y="154" type="curve" smooth="yes"/>
      <point x="111" y="114"/>
      <point x="136" y="95"/>
      <point x="165" y="95" type="curve" smooth="yes"/>
      <point x="191" y="95"/>
      <point x="217" y="110"/>
    </contour>
  </outline>
</glyph>
<glyph name="b" format="1">
  <advance width="464"/>
  <unicode hex="0062"/>
  <outline>
    <contour>
      <point x="300" y="536" type="curve" smooth="yes"/>
      <point x="376" y="536"/>
      <point x="417" y="484"/>
      <point x="417" y="373" type="curve" smooth="yes"/>
      <point x="417" y="341"/>
      <point x="414" y="305"/>
      <point x="407" y="263" type="curve" smooth="yes"/>
      <point x="380" y="102"/>
      <point x="308" y="-11"/>
      <point x="196" y="-11" type="curve" smooth="yes"/>
      <point x="161" y="-11"/>
      <point x="131" y="5"/>
      <point x="112" y="29" type="curve"/>
      <point x="107" y="0" type="line"/>
      <point x="-11" y="0" type="line"/>
      <point x="107" y="670" type="line"/>
      <point x="236" y="729" type="line"/>
      <point x="193" y="489" type="line"/>
      <point x="224" y="517"/>
      <point x="262" y="536"/>
    </contour>
    <contour>
      <point x="287" y="259" type="curve" smooth="yes"/>
      <point x="294" y="297"/>
      <point x="298" y="327"/>
      <point x="298" y="352" type="curve" smooth="yes"/>
      <point x="299" y="402"/>
      <point x="285" y="426"/>
      <point x="252" y="426" type="curve" smooth="yes"/>
      <point x="223" y="426"/>
      <point x="192" y="403"/>
      <point x="174" y="382" type="curve"/>
      <point x="132" y="144" type="line"/>
      <point x="144" y="120"/>
      <point x="164" y="99"/>
      <point x="197" y="99" type="curve" smooth="yes"/>
      <point x="239" y="99"/>
      <point x="266" y="137"/>
    </contour>
  </outline>
</glyph>
<glyph name="c" format="1">
  <advance width="400"/>
  <unicode hex="0063"/>
  <outline>
    <contour>
      <point x="402" y="417" type="curve"/>
      <point x="297" y="353" type="line"/>
      <point x="285" y="396"/>
      <point x="268" y="424"/>
      <point x="233" y="424" type="curve" smooth="yes"/>
      <point x="168" y="424"/>
      <point x="130" y="310"/>
      <point x="130" y="203" type="curve" smooth="yes"/>
      <point x="130" y="140"/>
      <point x="149" y="101"/>
      <point x="192" y="101" type="curve" smooth="yes"/>
      <point x="226" y="101"/>
      <point x="256" y="134"/>
      <point x="278" y="178" type="curve"/>
      <point x="356" y="115" type="line"/>
      <point x="315" y="42"/>
      <point x="256" y="-11"/>
      <point x="175" y="-11" type="curve" smooth="yes"/>
      <point x="75" y="-11"/>
      <point x="10" y="59"/>
      <point x="10" y="191" type="curve" smooth="yes"/>
      <point x="10" y="403"/>
      <point x="121" y="536"/>
      <point x="251" y="536" type="curve" smooth="yes"/>
      <point x="332" y="536"/>
      <point x="380" y="495"/>
    </contour>
  </outline>
</glyph>
<glyph name="d" format="1">
  <advance width="464"/>
  <unicode hex="0064"/>
  <outline>
    <contour>
      <point x="133" y="-11" type="curve" smooth="yes"/>
      <point x="55" y="-11"/>
      <point x="14" y="44"/>
      <point x="14" y="161" type="curve" smooth="yes"/>
      <point x="14" y="191"/>
      <point x="17" y="224"/>
      <point x="22" y="262" type="curve" smooth="yes"/>
      <point x="45" y="423"/>
      <point x="124" y="536"/>
      <point x="239" y="536" type="curve" smooth="yes"/>
      <point x="271" y="536"/>
      <point x="301" y="518"/>
      <point x="317" y="496" type="curve"/>
      <point x="348" y="670" type="line"/>
      <point x="477" y="729" type="line"/>
      <point x="348" y="0" type="line"/>
      <point x="230" y="0" type="line"/>
      <point x="236" y="36" type="line"/>
      <point x="208" y="9"/>
      <point x="168" y="-11"/>
    </contour>
    <contour>
      <point x="255" y="143" type="curve"/>
      <point x="297" y="381" type="line"/>
      <point x="285" y="404"/>
      <point x="269" y="426"/>
      <point x="236" y="426" type="curve" smooth="yes"/>
      <point x="194" y="426"/>
      <point x="161" y="389"/>
      <point x="143" y="266" type="curve" smooth="yes"/>
      <point x="137" y="228"/>
      <point x="135" y="197"/>
      <point x="135" y="173" type="curve" smooth="yes"/>
      <point x="135" y="122"/>
      <point x="149" y="99"/>
      <point x="182" y="99" type="curve" smooth="yes"/>
      <point x="211" y="99"/>
      <point x="238" y="122"/>
    </contour>
  </outline>
</glyph>
<glyph name="e" format="1">
  <advance width="446"/>
  <unicode hex="0065"/>
  <outline>
    <contour>
      <point x="393" y="218" type="curve"/>
      <point x="128" y="218" type="line"/>
      <point x="122" y="137"/>
      <point x="150" y="101"/>
      <point x="196" y="101" type="curve" smooth="yes"/>
      <point x="234" y="101"/>
      <point x="258" y="116"/>
      <point x="284" y="147" type="curve"/>
      <point x="359" y="84" type="line"/>
      <point x="312" y="20"/>
      <point x="253" y="-11"/>
      <point x="178" y="-11" type="curve" smooth="yes"/>
      <point x="68" y="-11"/>
      <point x="10" y="70"/>
      <point x="10" y="191" type="curve" smooth="yes"/>
      <point x="10" y="402"/>
      <point x="119" y="536"/>
      <point x="249" y="536" type="curve" smooth="yes"/>
      <point x="359" y="536"/>
      <point x="406" y="446"/>
      <point x="406" y="333" type="curve" smooth="yes"/>
      <point x="406" y="297"/>
      <point x="401" y="256"/>
    </contour>
    <contour>
      <point x="291" y="315" type="line"/>
      <point x="294" y="379"/>
      <point x="283" y="430"/>
      <point x="232" y="430" type="curve" smooth="yes"/>
      <point x="188" y="430"/>
      <point x="156" y="387"/>
      <point x="142" y="315" type="curve"/>
    </contour>
  </outline>
</glyph>
<glyph name="f" format="1">
  <advance width="295"/>
  <unicode hex="0066"/>
  <outline>
    <contour>
      <point x="341" y="609" type="line"/>
      <point x="328" y="616"/>
      <point x="313" y="619"/>
      <point x="290" y="619" type="curve" smooth="yes"/>
      <point x="257" y="619"/>
      <point x="241" y="606"/>
      <point x="235" y="568" type="curve" smooth="yes"/>
      <point x="228" y="525" type="line"/>
      <point x="312" y="525" type="line"/>
      <point x="292" y="413" type="line"/>
      <point x="208" y="413" type="line"/>
      <point x="135" y="0" type="line"/>
      <point x="17" y="0" type="line"/>
      <point x="90" y="413" type="line"/>
      <point x="37" y="413" type="line"/>
      <point x="57" y="525" type="line"/>
      <point x="110" y="525" type="line"/>
      <point x="121" y="588" type="line" smooth="yes"/>
      <point x="138" y="684"/>
      <point x="202" y="726"/>
      <point x="273" y="726" type="curve" smooth="yes"/>
      <point x="314" y="726"/>
      <point x="338" y="721"/>
      <point x="359" y="711" type="curve"/>
    </contour>
  </outline>
</glyph>
<glyph name="g" format="1">
  <advance width="464"/>
  <unicode hex="0067"/>
  <outline>
    <contour>
      <point x="133" y="-11" type="curve" smooth="yes"/>
      <point x="55" y="-11"/>
      <point x="14" y="44"/>
      <point x="14" y="159" type="curve" smooth="yes"/>
      <point x="14" y="189"/>
      <point x="16" y="223"/>
      <point x="22" y="262" type="curve" smooth="yes"/>
      <point x="45" y="423"/>
      <point x="125" y="536"/>
      <point x="240" y="536" type="curve" smooth="yes"/>
      <point x="275" y="536"/>
      <point x="299" y="520"/>
      <point x="317" y="496" type="curve"/>
      <point x="323" y="525" type="line"/>
      <point x="441" y="525" type="line"/>
      <point x="358" y="54" type="line" smooth="yes"/>
      <point x="330" y="-103"/>
      <point x="271" y="-169"/>
      <point x="87" y="-193" type="curve"/>
      <point x="70" y="-105" type="line"/>
      <point x="191" y="-85"/>
      <point x="220" y="-59"/>
      <point x="236" y="36" type="curve"/>
      <point x="206" y="6"/>
      <point x="168" y="-11"/>
    </contour>
    <contour>
      <point x="255" y="143" type="curve"/>
      <point x="297" y="381" type="line"/>
      <point x="285" y="404"/>
      <point x="269" y="426"/>
      <point x="236" y="426" type="curve" smooth="yes"/>
      <point x="194" y="426"/>
      <point x="161" y="389"/>
      <point x="143" y="266" type="curve" smooth="yes"/>
      <point x="137" y="228"/>
      <point x="135" y="197"/>
      <point x="135" y="172" type="curve" smooth="yes"/>
      <point x="135" y="122"/>
      <point x="149" y="99"/>
      <point x="182" y="99" type="curve" smooth="yes"/>
      <point x="211" y="99"/>
      <point x="238" y="122"/>
    </contour>
  </outline>
</glyph>
<glyph name="h" format="1">
  <advance width="457"/>
  <unicode hex="0068"/>
  <outline>
    <contour>
      <point x="248" y="426" type="curve" smooth="yes"/>
      <point x="222" y="426"/>
      <point x="193" y="403"/>
      <point x="174" y="382" type="curve"/>
      <point x="107" y="0" type="line"/>
      <point x="-11" y="0" type="line"/>
      <point x="107" y="670" type="line"/>
      <point x="236" y="729" type="line"/>
      <point x="193" y="489" type="line"/>
      <point x="223" y="517"/>
      <point x="259" y="536"/>
      <point x="296" y="536" type="curve" smooth="yes"/>
      <point x="378" y="536"/>
      <point x="410" y="494"/>
      <point x="410" y="418" type="curve" smooth="yes"/>
      <point x="410" y="396"/>
      <point x="406" y="368"/>
      <point x="402" y="344" type="curve" smooth="yes"/>
      <point x="341" y="0" type="line"/>
      <point x="223" y="0" type="line"/>
      <point x="283" y="340" type="line" smooth="yes"/>
      <point x="286" y="355"/>
      <point x="287" y="369"/>
      <point x="288" y="380" type="curve"/>
      <point x="288" y="413"/>
      <point x="277" y="426"/>
    </contour>
  </outline>
</glyph>
<glyph name="i" format="1">
  <advance width="238"/>
  <unicode hex="0069"/>
  <outline>
    <contour>
      <point x="243" y="651" type="curve" smooth="yes"/>
      <point x="243" y="610"/>
      <point x="209" y="576"/>
      <point x="168" y="576" type="curve" smooth="yes"/>
      <point x="127" y="576"/>
      <point x="93" y="610"/>
      <point x="93" y="651" type="curve" smooth="yes"/>
      <point x="93" y="692"/>
      <point x="127" y="726"/>
      <point x="168" y="726" type="curve" smooth="yes"/>
      <point x="209" y="726"/>
      <point x="243" y="692"/>
    </contour>
    <contour>
      <point x="112" y="0" type="line"/>
      <point x="-6" y="0" type="line"/>
      <point x="87" y="525" type="line"/>
      <point x="205" y="525" type="line"/>
    </contour>
  </outline>
</glyph>
<glyph name="j" format="1">
  <advance width="238"/>
  <unicode hex="006A"/>
  <outline>
    <contour>
      <point x="243" y="651" type="curve" smooth="yes"/>
      <point x="243" y="610"/>
      <point x="209" y="576"/>
      <point x="168" y="576" type="curve" smooth="yes"/>
      <point x="127" y="576"/>
      <point x="93" y="610"/>
      <point x="93" y="651" type="curve" smooth="yes"/>
      <point x="93" y="692"/>
      <point x="127" y="726"/>
      <point x="168" y="726" type="curve" smooth="yes"/>
      <point x="209" y="726"/>
      <point x="243" y="692"/>
    </contour>
    <contour>
      <point x="118" y="33" type="line" smooth="yes"/>
      <point x="91" y="-122"/>
      <point x="42" y="-168"/>
      <point x="-118" y="-193" type="curve"/>
      <point x="-135" y="-103" type="line"/>
      <point x="-36" y="-82"/>
      <point x="-17" y="-61"/>
      <point x="-1" y="28" type="curve" smooth="yes"/>
      <point x="87" y="525" type="line"/>
      <point x="205" y="525" type="line"/>
    </contour>
  </outline>
</glyph>
<glyph name="k" format="1">
  <advance width="433"/>
  <unicode hex="006B"/>
  <outline>
    <contour>
      <point x="355" y="0" type="line"/>
      <point x="232" y="0" type="line"/>
      <point x="196" y="241" type="line"/>
      <point x="136" y="164" type="line"/>
      <point x="107" y="0" type="line"/>
      <point x="-11" y="0" type="line"/>
      <point x="107" y="670" type="line"/>
      <point x="236" y="729" type="line"/>
      <point x="178" y="400" type="line" smooth="yes"/>
      <point x="173" y="370"/>
      <point x="169" y="355"/>
      <point x="163" y="326" type="curve"/>
      <point x="180" y="352"/>
      <point x="201" y="380"/>
      <point x="217" y="401" type="curve" smooth="yes"/>
      <point x="312" y="525" type="line"/>
      <point x="442" y="525" type="line"/>
      <point x="297" y="354" type="line"/>
    </contour>
  </outline>
</glyph>
<glyph name="l" format="1">
  <advance width="238"/>
  <unicode hex="006C"/>
  <outline>
    <contour>
      <point x="112" y="0" type="line"/>
      <point x="-6" y="0" type="line"/>
      <point x="112" y="670" type="line"/>
      <point x="241" y="729" type="line"/>
    </contour>
  </outline>
</glyph>
<glyph name="m" format="1">
  <advance width="683"/>
  <unicode hex="006D"/>
  <outline>
    <contour>
      <point x="567" y="0" type="line"/>
      <point x="449" y="0" type="line"/>
      <point x="509" y="340" type="line" smooth="yes"/>
      <point x="512" y="359"/>
      <point x="514" y="374"/>
      <point x="514" y="386" type="curve" smooth="yes"/>
      <point x="514" y="415"/>
      <point x="502" y="426"/>
      <point x="475" y="426" type="curve" smooth="yes"/>
      <point x="450" y="426"/>
      <point x="422" y="404"/>
      <point x="404" y="382" type="curve"/>
      <point x="337" y="0" type="line"/>
      <point x="219" y="0" type="line"/>
      <point x="279" y="340" type="line" smooth="yes"/>
      <point x="282" y="358"/>
      <point x="284" y="372"/>
      <point x="284" y="384" type="curve" smooth="yes"/>
      <point x="284" y="415"/>
      <point x="273" y="426"/>
      <point x="246" y="426" type="curve" smooth="yes"/>
      <point x="221" y="426"/>
      <point x="192" y="403"/>
      <point x="174" y="382" type="curve"/>
      <point x="107" y="0" type="line"/>
      <point x="-11" y="0" type="line"/>
      <point x="82" y="525" type="line"/>
      <point x="200" y="525" type="line"/>
      <point x="193" y="489" type="line"/>
      <point x="224" y="517"/>
      <point x="268" y="536"/>
      <point x="302" y="536" type="curve" smooth="yes"/>
      <point x="363" y="536"/>
      <point x="388" y="510"/>
      <point x="400" y="478" type="curve"/>
      <point x="433" y="510"/>
      <point x="475" y="536"/>
      <point x="526" y="536" type="curve" smooth="yes"/>
      <point x="603" y="536"/>
      <point x="635" y="494"/>
      <point x="635" y="416" type="curve" smooth="yes"/>
      <point x="635" y="395"/>
      <point x="633" y="371"/>
      <point x="628" y="344" type="curve" smooth="yes"/>
    </contour>
  </outline>
</glyph>
<glyph name="n" format="1">
  <advance width="457"/>
  <unicode hex="006E"/>
  <outline>
    <contour>
      <point x="341" y="0" type="line"/>
      <point x="223" y="0" type="line"/>
      <point x="283" y="340" type="line" smooth="yes"/>
      <point x="286" y="357"/>
      <point x="288" y="372"/>
      <point x="288" y="383" type="curve" smooth="yes"/>
      <point x="288" y="415"/>
      <point x="276" y="426"/>
      <point x="248" y="426" type="curve" smooth="yes"/>
      <point x="222" y="426"/>
      <point x="193" y="404"/>
      <point x="174" y="382" type="curve"/>
      <point x="107" y="0" type="line"/>
      <point x="-11" y="0" type="line"/>
      <point x="82" y="525" type="line"/>
      <point x="200" y="525" type="line"/>
      <point x="193" y="489" type="line"/>
      <point x="224" y="517"/>
      <point x="259" y="536"/>
      <point x="296" y="536" type="curve" smooth="yes"/>
      <point x="377" y="536"/>
      <point x="409" y="495"/>
      <point x="410" y="419" type="curve" smooth="yes"/>
      <point x="410" y="397"/>
      <point x="407" y="370"/>
      <point x="402" y="344" type="curve" smooth="yes"/>
    </contour>
  </outline>
</glyph>
<glyph name="o" format="1">
  <advance width="464"/>
  <unicode hex="006F"/>
  <outline>
    <contour>
      <point x="177" y="-11" type="curve" smooth="yes"/>
      <point x="76" y="-11"/>
      <point x="10" y="65"/>
      <point x="10" y="193" type="curve" smooth="yes"/>
      <point x="10" y="397"/>
      <point x="112" y="536"/>
      <point x="246" y="536" type="curve" smooth="yes"/>
      <point x="347" y="536"/>
      <point x="414" y="465"/>
      <point x="414" y="331" type="curve" smooth="yes"/>
      <point x="414" y="128"/>
      <point x="310" y="-11"/>
    </contour>
    <contour>
      <point x="294" y="327" type="curve" smooth="yes"/>
      <point x="294" y="387"/>
      <point x="276" y="424"/>
      <point x="234" y="424" type="curve" smooth="yes"/>
      <point x="167" y="424"/>
      <point x="129" y="311"/>
      <point x="129" y="199" type="curve" smooth="yes"/>
      <point x="129" y="138"/>
      <point x="148" y="101"/>
      <point x="191" y="101" type="curve" smooth="yes"/>
      <point x="262" y="101"/>
      <point x="294" y="225"/>
    </contour>
  </outline>
</glyph>
<glyph name="p" format="1">
  <advance width="464"/>
  <unicode hex="0070"/>
  <outline>
    <contour>
      <point x="407" y="263" type="curve" smooth="yes"/>
      <point x="380" y="102"/>
      <point x="309" y="-11"/>
      <point x="194" y="-11" type="curve" smooth="yes"/>
      <point x="159" y="-11"/>
      <point x="130" y="4"/>
      <point x="112" y="29" type="curve"/>
      <point x="83" y="-134" type="line"/>
      <point x="-45" y="-193" type="line"/>
      <point x="82" y="525" type="line"/>
      <point x="200" y="525" type="line"/>
      <point x="193" y="489" type="line"/>
      <point x="224" y="517"/>
      <point x="262" y="536"/>
      <point x="300" y="536" type="curve" smooth="yes"/>
      <point x="377" y="536"/>
      <point x="418" y="483"/>
      <point x="417" y="371" type="curve" smooth="yes"/>
      <point x="417" y="340"/>
      <point x="414" y="304"/>
    </contour>
    <contour>
      <point x="287" y="259" type="curve" smooth="yes"/>
      <point x="294" y="297"/>
      <point x="298" y="327"/>
      <point x="298" y="352" type="curve" smooth="yes"/>
      <point x="299" y="402"/>
      <point x="285" y="426"/>
      <point x="252" y="426" type="curve" smooth="yes"/>
      <point x="223" y="426"/>
      <point x="192" y="403"/>
      <point x="174" y="382" type="curve"/>
      <point x="132" y="144" type="line"/>
      <point x="144" y="120"/>
      <point x="164" y="99"/>
      <point x="197" y="99" type="curve" smooth="yes"/>
      <point x="239" y="99"/>
      <point x="266" y="137"/>
    </contour>
  </outline>
</glyph>
<glyph name="q" format="1">
  <advance width="464"/>
  <unicode hex="0071"/>
  <outline>
    <contour>
      <point x="324" y="-134" type="line"/>
      <point x="196" y="-193" type="line"/>
      <point x="236" y="36" type="line"/>
      <point x="205" y="8"/>
      <point x="171" y="-11"/>
      <point x="133" y="-11" type="curve" smooth="yes"/>
      <point x="55" y="-11"/>
      <point x="14" y="44"/>
      <point x="14" y="161" type="curve" smooth="yes"/>
      <point x="14" y="191"/>
      <point x="17" y="224"/>
      <point x="22" y="262" type="curve" smooth="yes"/>
      <point x="45" y="423"/>
      <point x="125" y="536"/>
      <point x="240" y="536" type="curve" smooth="yes"/>
      <point x="275" y="536"/>
      <point x="299" y="520"/>
      <point x="317" y="496" type="curve"/>
      <point x="323" y="525" type="line"/>
      <point x="441" y="525" type="line"/>
    </contour>
    <contour>
      <point x="255" y="143" type="curve"/>
      <point x="297" y="381" type="line"/>
      <point x="285" y="404"/>
      <point x="269" y="426"/>
      <point x="236" y="426" type="curve" smooth="yes"/>
      <point x="194" y="426"/>
      <point x="161" y="389"/>
      <point x="143" y="266" type="curve" smooth="yes"/>
      <point x="138" y="230"/>
      <point x="135" y="201"/>
      <point x="135" y="177" type="curve" smooth="yes"/>
      <point x="135" y="123"/>
      <point x="148" y="99"/>
      <point x="182" y="99" type="curve" smooth="yes"/>
      <point x="211" y="99"/>
      <point x="238" y="122"/>
    </contour>
  </outline>
</glyph>
<glyph name="r" format="1">
  <advance width="344"/>
  <unicode hex="0072"/>
  <outline>
    <contour>
      <point x="376" y="509" type="curve"/>
      <point x="321" y="394" type="line"/>
      <point x="304" y="410"/>
      <point x="285" y="420"/>
      <point x="257" y="420" type="curve" smooth="yes"/>
      <point x="226" y="420"/>
      <point x="198" y="404"/>
      <point x="173" y="375" type="curve"/>
      <point x="107" y="0" type="line"/>
      <point x="-11" y="0" type="line"/>
      <point x="82" y="525" type="line"/>
      <point x="200" y="525" type="line"/>
      <point x="193" y="489" type="line"/>
      <point x="217" y="512"/>
      <point x="257" y="536"/>
      <point x="296" y="536" type="curve" smooth="yes"/>
      <point x="331" y="536"/>
      <point x="354" y="527"/>
    </contour>
  </outline>
</glyph>
<glyph name="s" format="1">
  <advance width="394"/>
  <unicode hex="0073"/>
  <outline>
    <contour>
      <point x="142" y="-11" type="curve" smooth="yes"/>
      <point x="77" y="-11"/>
      <point x="17" y="7"/>
      <point x="-25" y="46" type="curve"/>
      <point x="35" y="147" type="line"/>
      <point x="73" y="116"/>
      <point x="108" y="100"/>
      <point x="150" y="100" type="curve" smooth="yes"/>
      <point x="186" y="100"/>
      <point x="213" y="117"/>
      <point x="213" y="150" type="curve" smooth="yes"/>
      <point x="213" y="176"/>
      <point x="194" y="191"/>
      <point x="142" y="227" type="curve" smooth="yes"/>
      <point x="91" y="262"/>
      <point x="46" y="306"/>
      <point x="46" y="371" type="curve" smooth="yes"/>
      <point x="46" y="479"/>
      <point x="128" y="536"/>
      <point x="225" y="536" type="curve" smooth="yes"/>
      <point x="280" y="536"/>
      <point x="336" y="520"/>
      <point x="377" y="488" type="curve"/>
      <point x="319" y="392" type="line"/>
      <point x="284" y="417"/>
      <point x="256" y="428"/>
      <point x="220" y="428" type="curve" smooth="yes"/>
      <point x="191" y="428"/>
      <point x="167" y="415"/>
      <point x="167" y="389" type="curve" smooth="yes"/>
      <point x="167" y="369"/>
      <point x="180" y="353"/>
      <point x="236" y="315" type="curve" smooth="yes"/>
      <point x="294" y="275"/>
      <point x="332" y="233"/>
      <point x="332" y="167" type="curve" smooth="yes"/>
      <point x="332" y="50"/>
      <point x="242" y="-11"/>
    </contour>
  </outline>
</glyph>
<glyph name="t" format="1">
  <advance width="325"/>
  <unicode hex="0074"/>
  <outline>
    <contour>
      <point x="268" y="126" type="curve"/>
      <point x="234" y="12" type="line"/>
      <point x="206" y="-2"/>
      <point x="177" y="-11"/>
      <point x="142" y="-11" type="curve" smooth="yes"/>
      <point x="57" y="-11"/>
      <point x="22" y="39"/>
      <point x="43" y="159" type="curve" smooth="yes"/>
      <point x="88" y="413" type="line"/>
      <point x="23" y="413" type="line"/>
      <point x="43" y="525" type="line"/>
      <point x="108" y="525" type="line"/>
      <point x="133" y="670" type="line"/>
      <point x="262" y="729" type="line"/>
      <point x="226" y="525" type="line"/>
      <point x="332" y="525" type="line"/>
      <point x="312" y="413" type="line"/>
      <point x="206" y="413" type="line"/>
      <point x="160" y="153" type="line" smooth="yes"/>
      <point x="153" y="115"/>
      <point x="166" y="101"/>
      <point x="194" y="101" type="curve" smooth="yes"/>
      <point x="217" y="101"/>
      <point x="242" y="109"/>
    </contour>
  </outline>
</glyph>
<glyph name="u" format="1">
  <advance width="457"/>
  <unicode hex="0075"/>
  <outline>
    <contour>
      <point x="337" y="0" type="line"/>
      <point x="219" y="0" type="line"/>
      <point x="225" y="36" type="line"/>
      <point x="197" y="9"/>
      <point x="160" y="-11"/>
      <point x="122" y="-11" type="curve" smooth="yes"/>
      <point x="39" y="-11"/>
      <point x="9" y="30"/>
      <point x="9" y="104" type="curve" smooth="yes"/>
      <point x="9" y="127"/>
      <point x="12" y="152"/>
      <point x="17" y="181" type="curve" smooth="yes"/>
      <point x="78" y="525" type="line"/>
      <point x="196" y="525" type="line"/>
      <point x="136" y="185" type="line" smooth="yes"/>
      <point x="133" y="168"/>
      <point x="131" y="154"/>
      <point x="131" y="143" type="curve" smooth="yes"/>
      <point x="131" y="111"/>
      <point x="143" y="99"/>
      <point x="172" y="99" type="curve" smooth="yes"/>
      <point x="197" y="99"/>
      <point x="227" y="121"/>
      <point x="244" y="143" type="curve"/>
      <point x="312" y="525" type="line"/>
      <point x="430" y="525" type="line"/>
    </contour>
  </outline>
</glyph>
<glyph name="v" format="1">
  <advance width="436"/>
  <unicode hex="0076"/>
  <outline>
    <contour>
      <point x="444" y="525" type="line"/>
      <point x="217" y="0" type="line"/>
      <point x="89" y="0" type="line"/>
      <point x="48" y="525" type="line"/>
      <point x="166" y="525" type="line"/>
      <point x="175" y="298" type="line" smooth="yes"/>
      <point x="177" y="255"/>
      <point x="178" y="163"/>
      <point x="178" y="135" type="curve"/>
      <point x="188" y="163"/>
      <point x="224" y="259"/>
      <point x="239" y="298" type="curve" smooth="yes"/>
      <point x="328" y="525" type="line"/>
    </contour>
  </outline>
</glyph>
<glyph name="w" format="1">
  <advance width="594"/>
  <unicode hex="0077"/>
  <outline>
    <contour>
      <point x="597" y="525" type="line"/>
      <point x="388" y="0" type="line"/>
      <point x="300" y="0" type="line"/>
      <point x="294" y="182" type="line" smooth="yes"/>
      <point x="292" y="229"/>
      <point x="291" y="311"/>
      <point x="292" y="347" type="curve"/>
      <point x="281" y="311"/>
      <point x="250" y="229"/>
      <point x="232" y="180" type="curve" smooth="yes"/>
      <point x="164" y="0" type="line"/>
      <point x="76" y="0" type="line"/>
      <point x="53" y="525" type="line"/>
      <point x="161" y="525" type="line"/>
      <point x="160" y="371" type="line" smooth="yes"/>
      <point x="160" y="321"/>
      <point x="159" y="237"/>
      <point x="157" y="201" type="curve"/>
      <point x="170" y="237"/>
      <point x="202" y="322"/>
      <point x="221" y="370" type="curve" smooth="yes"/>
      <point x="283" y="525" type="line"/>
      <point x="367" y="525" type="line"/>
      <point x="373" y="370" type="line" smooth="yes"/>
      <point x="375" y="322"/>
      <point x="378" y="237"/>
      <point x="377" y="201" type="curve"/>
      <point x="389" y="237"/>
      <point x="416" y="321"/>
      <point x="434" y="371" type="curve" smooth="yes"/>
      <point x="489" y="525" type="line"/>
    </contour>
  </outline>
</glyph>
<glyph name="x" format="1">
  <advance width="446"/>
  <unicode hex="0078"/>
  <outline>
    <contour>
      <point x="364" y="0" type="line"/>
      <point x="238" y="0" type="line"/>
      <point x="214" y="84" type="line" smooth="yes"/>
      <point x="205" y="115"/>
      <point x="200" y="145"/>
      <point x="194" y="174" type="curve"/>
      <point x="178" y="145"/>
      <point x="161" y="114"/>
      <point x="142" y="84" type="curve" smooth="yes"/>
      <point x="88" y="0" type="line"/>
      <point x="-36" y="0" type="line"/>
      <point x="152" y="272" type="line"/>
      <point x="67" y="525" type="line"/>
      <point x="193" y="525" type="line"/>
      <point x="210" y="461" type="line" smooth="yes"/>
      <point x="218" y="430"/>
      <point x="225" y="399"/>
      <point x="230" y="371" type="curve"/>
      <point x="247" y="400"/>
      <point x="263" y="431"/>
      <point x="282" y="461" type="curve" smooth="yes"/>
      <point x="323" y="525" type="line"/>
      <point x="447" y="525" type="line"/>
      <point x="272" y="272" type="line"/>
    </contour>
  </outline>
</glyph>
<glyph name="y" format="1">
  <advance width="452"/>
  <unicode hex="0079"/>
  <outline>
    <contour>
      <point x="473" y="525" type="line"/>
      <point x="147" y="-185" type="line"/>
      <point x="38" y="-185" type="line"/>
      <point x="126" y="9" type="line"/>
      <point x="61" y="525" type="line"/>
      <point x="185" y="525" type="line"/>
      <point x="199" y="329" type="line" smooth="yes"/>
      <point x="203" y="277"/>
      <point x="208" y="190"/>
      <point x="207" y="160" type="curve"/>
      <point x="218" y="190"/>
      <point x="251" y="279"/>
      <point x="271" y="328" type="curve" smooth="yes"/>
      <point x="350" y="525" type="line"/>
    </contour>
  </outline>
</glyph>
<glyph name="z" format="1">
  <advance width="415"/>
  <unicode hex="007A"/>
  <outline>
    <contour>
      <point x="312" y="0" type="line"/>
      <point x="-20" y="0" type="line"/>
      <point x="-2" y="103" type="line"/>
      <point x="174" y="313" type="line" smooth="yes"/>
      <point x="208" y="354"/>
      <point x="242" y="393"/>
      <point x="268" y="421" type="curve"/>
      <point x="237" y="420"/>
      <point x="200" y="419"/>
      <point x="157" y="419" type="curve" smooth="yes"/>
      <point x="69" y="419" type="line"/>
      <point x="88" y="525" type="line"/>
      <point x="405" y="525" type="line"/>
      <point x="386" y="422" type="line"/>
      <point x="213" y="212" type="line" smooth="yes"/>
      <point x="179" y="170"/>
      <point x="145" y="133"/>
      <point x="118" y="104" type="curve"/>
      <point x="151" y="105"/>
      <point x="188" y="106"/>
      <point x="231" y="106" type="curve" smooth="yes"/>
      <point x="331" y="106" type="line"/>
    </contour>
  </outline>
</glyph>
<glyph name="braceleft" format="1">
  <advance width="375"/>
  <unicode hex="007B"/>
  <outline>
    <contour>
      <point x="290" y="-110" type="line"/>
      <point x="148" y="-110"/>
      <point x="91" y="-58"/>
      <point x="93" y="44" type="curve" smooth="yes"/>
      <point x="93" y="62"/>
      <point x="96" y="81"/>
      <point x="99" y="101" type="curve" smooth="yes"/>
      <point x="112" y="176" type="line" smooth="yes"/>
      <point x="120" y="224"/>
      <point x="103" y="245"/>
      <point x="64" y="245" type="curve" smooth="yes"/>
      <point x="42" y="245" type="line"/>
      <point x="61" y="349" type="line"/>
      <point x="83" y="349" type="line" smooth="yes"/>
      <point x="122" y="349"/>
      <point x="147" y="370"/>
      <point x="155" y="418" type="curve" smooth="yes"/>
      <point x="168" y="494" type="line" smooth="yes"/>
      <point x="192" y="633"/>
      <point x="267" y="705"/>
      <point x="433" y="705" type="curve"/>
      <point x="419" y="624" type="line"/>
      <point x="327" y="614"/>
      <point x="310" y="575"/>
      <point x="296" y="494" type="curve" smooth="yes"/>
      <point x="289" y="453" type="line" smooth="yes"/>
      <point x="271" y="346"/>
      <point x="235" y="316"/>
      <point x="166" y="297" type="curve"/>
      <point x="228" y="278"/>
      <point x="253" y="248"/>
      <point x="234" y="141" type="curve" smooth="yes"/>
      <point x="227" y="101" type="line" smooth="yes"/>
      <point x="223" y="79"/>
      <point x="221" y="61"/>
      <point x="221" y="45" type="curve" smooth="yes"/>
      <point x="221" y="1"/>
      <point x="239" y="-22"/>
      <point x="304" y="-29" type="curve"/>
    </contour>
  </outline>
</glyph>
<glyph name="bar" format="1">
  <advance width="258"/>
  <unicode hex="007C"/>
  <outline>
    <contour>
      <point x="87" y="-185" type="line"/>
      <point x="-23" y="-185" type="line"/>
      <point x="151" y="800" type="line"/>
      <point x="261" y="800" type="line"/>
    </contour>
  </outline>
</glyph>
<glyph name="braceright" format="1">
  <advance width="375"/>
  <unicode hex="007D"/>
  <outline>
    <contour>
      <point x="301" y="246" type="line"/>
      <point x="279" y="246" type="line" smooth="yes"/>
      <point x="240" y="246"/>
      <point x="215" y="225"/>
      <point x="207" y="177" type="curve" smooth="yes"/>
      <point x="194" y="101" type="line" smooth="yes"/>
      <point x="170" y="-38"/>
      <point x="95" y="-110"/>
      <point x="-71" y="-110" type="curve"/>
      <point x="-57" y="-29" type="line"/>
      <point x="35" y="-19"/>
      <point x="52" y="20"/>
      <point x="66" y="101" type="curve" smooth="yes"/>
      <point x="73" y="142" type="line" smooth="yes"/>
      <point x="91" y="249"/>
      <point x="127" y="279"/>
      <point x="196" y="298" type="curve"/>
      <point x="134" y="317"/>
      <point x="109" y="347"/>
      <point x="128" y="454" type="curve" smooth="yes"/>
      <point x="135" y="494" type="line" smooth="yes"/>
      <point x="139" y="515"/>
      <point x="141" y="533"/>
      <point x="141" y="549" type="curve" smooth="yes"/>
      <point x="142" y="593"/>
      <point x="123" y="617"/>
      <point x="58" y="624" type="curve"/>
      <point x="72" y="705" type="line"/>
      <point x="210" y="705"/>
      <point x="267" y="655"/>
      <point x="269" y="558" type="curve" smooth="yes"/>
      <point x="269" y="539"/>
      <point x="267" y="517"/>
      <point x="263" y="494" type="curve" smooth="yes"/>
      <point x="250" y="419" type="line" smooth="yes"/>
      <point x="242" y="371"/>
      <point x="259" y="350"/>
      <point x="298" y="350" type="curve" smooth="yes"/>
      <point x="320" y="350" type="line"/>
    </contour>
  </outline>
</glyph>
<glyph name="asciitilde" format="1">
  <advance width="562"/>
  <unicode hex="007E"/>
  <outline>
    <contour>
      <point x="533" y="424" type="line"/>
      <point x="481" y="332"/>
      <point x="432" y="283"/>
      <point x="358" y="283" type="curve" smooth="yes"/>
      <point x="317" y="283"/>
      <point x="293" y="296"/>
      <point x="265" y="317" type="curve" smooth="yes"/>
      <point x="227" y="346"/>
      <point x="208" y="357"/>
      <point x="189" y="357" type="curve" smooth="yes"/>
      <point x="157" y="357"/>
      <point x="140" y="339"/>
      <point x="102" y="281" type="curve"/>
      <point x="36" y="318" type="line"/>
      <point x="88" y="410"/>
      <point x="136" y="459"/>
      <point x="210" y="459" type="curve" smooth="yes"/>
      <point x="251" y="459"/>
      <point x="275" y="448"/>
      <point x="304" y="425" type="curve" smooth="yes"/>
      <point x="337" y="399"/>
      <point x="362" y="385"/>
      <point x="379" y="385" type="curve" smooth="yes"/>
      <point x="411" y="385"/>
      <point x="429" y="403"/>
      <point x="467" y="461" type="curve"/>
    </contour>
  </outline>
</glyph>
<glyph name="cent" format="1">
  <advance width="430"/>
  <unicode hex="00A2"/>
  <outline>
    <contour>
      <point x="450" y="510" type="curve"/>
      <point x="344" y="449" type="line"/>
      <point x="334" y="492"/>
      <point x="318" y="520"/>
      <point x="283" y="520" type="curve" smooth="yes"/>
      <point x="216" y="520"/>
      <point x="171" y="393"/>
      <point x="171" y="285" type="curve" smooth="yes"/>
      <point x="171" y="227"/>
      <point x="189" y="191"/>
      <point x="229" y="191" type="curve" smooth="yes"/>
      <point x="263" y="191"/>
      <point x="293" y="224"/>
      <point x="318" y="268" type="curve"/>
      <point x="395" y="208" type="line"/>
      <point x="361" y="151"/>
      <point x="316" y="106"/>
      <point x="259" y="89" type="curve"/>
      <point x="241" y="-11" type="line"/>
      <point x="122" y="-11" type="line"/>
      <point x="141" y="95" type="line"/>
      <point x="83" y="120"/>
      <point x="50" y="184"/>
      <point x="50" y="275" type="curve" smooth="yes"/>
      <point x="50" y="443"/>
      <point x="130" y="582"/>
      <point x="233" y="619" type="curve"/>
      <point x="249" y="711" type="line"/>
      <point x="368" y="711" type="line"/>
      <point x="353" y="623" type="line"/>
      <point x="402" y="609"/>
      <point x="436" y="571"/>
    </contour>
  </outline>
</glyph>
<glyph name="sterling" format="1">
  <advance width="489"/>
  <unicode hex="00A3"/>
  <outline>
    <contour>
      <point x="532" y="636" type="curve"/>
      <point x="450" y="541" type="line"/>
      <point x="418" y="571"/>
      <point x="382" y="590"/>
      <point x="337" y="590" type="curve" smooth="yes"/>
      <point x="281" y="590"/>
      <point x="254" y="555"/>
      <point x="254" y="501" type="curve" smooth="yes"/>
      <point x="254" y="480"/>
      <point x="259" y="456"/>
      <point x="264" y="434" type="curve" smooth="yes"/>
      <point x="269" y="414"/>
      <point x="272" y="397"/>
      <point x="274" y="378" type="curve"/>
      <point x="387" y="378" type="line"/>
      <point x="368" y="275" type="line"/>
      <point x="267" y="275" type="line"/>
      <point x="251" y="213"/>
      <point x="214" y="159"/>
      <point x="172" y="109" type="curve"/>
      <point x="425" y="109" type="line"/>
      <point x="406" y="0" type="line"/>
      <point x="14" y="0" type="line"/>
      <point x="32" y="102" type="line"/>
      <point x="94" y="160"/>
      <point x="128" y="210"/>
      <point x="144" y="275" type="curve"/>
      <point x="62" y="275" type="line"/>
      <point x="81" y="378" type="line"/>
      <point x="151" y="378" type="line"/>
      <point x="148" y="392"/>
      <point x="144" y="406"/>
      <point x="140" y="420" type="curve" smooth="yes"/>
      <point x="134" y="440"/>
      <point x="130" y="464"/>
      <point x="130" y="491" type="curve" smooth="yes"/>
      <point x="130" y="627"/>
      <point x="222" y="711"/>
      <point x="350" y="711" type="curve" smooth="yes"/>
      <point x="428" y="711"/>
      <point x="483" y="683"/>
    </contour>
  </outline>
</glyph>
<glyph name="yen" format="1">
  <advance width="496"/>
  <unicode hex="00A5"/>
  <outline>
    <contour>
      <point x="526" y="700" type="line"/>
      <point x="272" y="247" type="line"/>
      <point x="267" y="219" type="line"/>
      <point x="372" y="219" type="line"/>
      <point x="353" y="112" type="line"/>
      <point x="248" y="112" type="line"/>
      <point x="228" y="0" type="line"/>
      <point x="111" y="0" type="line"/>
      <point x="131" y="112" type="line"/>
      <point x="26" y="112" type="line"/>
      <point x="45" y="219" type="line"/>
      <point x="150" y="219" type="line"/>
      <point x="154" y="245" type="line"/>
      <point x="60" y="700" type="line"/>
      <point x="198" y="700" type="line"/>
      <point x="219" y="558" type="line" smooth="yes"/>
      <point x="227" y="506"/>
      <point x="239" y="423"/>
      <point x="239" y="385" type="curve"/>
      <point x="254" y="424"/>
      <point x="293" y="505"/>
      <point x="319" y="558" type="curve" smooth="yes"/>
      <point x="390" y="700" type="line"/>
    </contour>
  </outline>
</glyph>
<glyph name="section" format="1">
  <advance width="527"/>
  <unicode hex="00A7"/>
  <outline>
    <contour>
      <point x="364" y="107" type="curve"/>
      <point x="385" y="84"/>
      <point x="394" y="59"/>
      <point x="394" y="26" type="curve" smooth="yes"/>
      <point x="394" y="-88"/>
      <point x="304" y="-164"/>
      <point x="176" y="-164" type="curve" smooth="yes"/>
      <point x="111" y="-164"/>
      <point x="58" y="-142"/>
      <point x="10" y="-107" type="curve"/>
      <point x="81" y="-10" type="line"/>
      <point x="114" y="-34"/>
      <point x="154" y="-51"/>
      <point x="194" y="-51" type="curve" smooth="yes"/>
      <point x="241" y="-51"/>
      <point x="266" y="-30"/>
      <point x="266" y="5" type="curve" smooth="yes"/>
      <point x="266" y="32"/>
      <point x="245" y="48"/>
      <point x="173" y="87" type="curve" smooth="yes"/>
      <point x="83" y="136"/>
      <point x="43" y="182"/>
      <point x="43" y="252" type="curve" smooth="yes"/>
      <point x="43" y="347"/>
      <point x="96" y="405"/>
      <point x="161" y="440" type="curve"/>
      <point x="141" y="462"/>
      <point x="132" y="488"/>
      <point x="132" y="520" type="curve" smooth="yes"/>
      <point x="132" y="636"/>
      <point x="215" y="711"/>
      <point x="344" y="711" type="curve" smooth="yes"/>
      <point x="409" y="711"/>
      <point x="467" y="689"/>
      <point x="515" y="654" type="curve"/>
      <point x="444" y="557" type="line"/>
      <point x="411" y="581"/>
      <point x="371" y="598"/>
      <point x="331" y="598" type="curve" smooth="yes"/>
      <point x="286" y="598"/>
      <point x="260" y="578"/>
      <point x="260" y="544" type="curve" smooth="yes"/>
      <point x="260" y="516"/>
      <point x="279" y="499"/>
      <point x="352" y="460" type="curve" smooth="yes"/>
      <point x="438" y="414"/>
      <point x="483" y="371"/>
      <point x="483" y="296" type="curve" smooth="yes"/>
      <point x="483" y="202"/>
      <point x="430" y="145"/>
    </contour>
    <contour>
      <point x="355" y="272" type="curve" smooth="yes"/>
      <point x="355" y="310"/>
      <point x="331" y="332"/>
      <point x="265" y="368" type="curve" smooth="yes"/>
      <point x="258" y="372"/>
      <point x="249" y="376"/>
      <point x="243" y="380" type="curve"/>
      <point x="196" y="356"/>
      <point x="170" y="322"/>
      <point x="170" y="278" type="curve" smooth="yes"/>
      <point x="170" y="239"/>
      <point x="195" y="215"/>
      <point x="261" y="179" type="curve" smooth="yes"/>
      <point x="268" y="175"/>
      <point x="276" y="171"/>
      <point x="282" y="167" type="curve"/>
      <point x="331" y="192"/>
      <point x="355" y="226"/>
    </contour>
  </outline>
</glyph>
<glyph name="dieresis" format="1">
  <advance width="400"/>
  <unicode hex="00A8"/>
  <outline>
    <contour>
      <point x="410" y="666" type="curve" smooth="yes"/>
      <point x="410" y="628"/>
      <point x="377" y="595"/>
      <point x="339" y="595" type="curve" smooth="yes"/>
      <point x="300" y="595"/>
      <point x="267" y="628"/>
      <point x="267" y="666" type="curve" smooth="yes"/>
      <point x="267" y="705"/>
      <point x="300" y="738"/>
      <point x="339" y="738" type="curve" smooth="yes"/>
      <point x="377" y="738"/>
      <point x="410" y="705"/>
    </contour>
    <contour>
      <point x="219" y="666" type="curve" smooth="yes"/>
      <point x="219" y="628"/>
      <point x="186" y="595"/>
      <point x="148" y="595" type="curve" smooth="yes"/>
      <point x="109" y="595"/>
      <point x="76" y="628"/>
      <point x="76" y="666" type="curve" smooth="yes"/>
      <point x="76" y="705"/>
      <point x="109" y="738"/>
      <point x="148" y="738" type="curve" smooth="yes"/>
      <point x="186" y="738"/>
      <point x="219" y="705"/>
    </contour>
  </outline>
</glyph>
<glyph name="ordfeminine" format="1">
  <advance width="396"/>
  <unicode hex="00AA"/>
  <outline>
    <contour>
      <point x="320" y="277" type="line"/>
      <point x="225" y="277" type="line"/>
      <point x="230" y="306" type="line"/>
      <point x="206" y="281"/>
      <point x="174" y="268"/>
      <point x="147" y="268" type="curve" smooth="yes"/>
      <point x="83" y="268"/>
      <point x="45" y="308"/>
      <point x="45" y="380" type="curve" smooth="yes"/>
      <point x="45" y="494"/>
      <point x="116" y="558"/>
      <point x="202" y="558" type="curve" smooth="yes"/>
      <point x="239" y="558"/>
      <point x="254" y="552"/>
      <point x="271" y="541" type="curve"/>
      <point x="277" y="573" type="line" smooth="yes"/>
      <point x="278" y="578"/>
      <point x="279" y="585"/>
      <point x="279" y="589" type="curve" smooth="yes"/>
      <point x="279" y="609"/>
      <point x="267" y="626"/>
      <point x="235" y="626" type="curve" smooth="yes"/>
      <point x="199" y="626"/>
      <point x="175" y="618"/>
      <point x="145" y="600" type="curve"/>
      <point x="118" y="669" type="line"/>
      <point x="162" y="696"/>
      <point x="204" y="711"/>
      <point x="256" y="711" type="curve" smooth="yes"/>
      <point x="339" y="711"/>
      <point x="375" y="677"/>
      <point x="375" y="611" type="curve" smooth="yes"/>
      <point x="375" y="598"/>
      <point x="373" y="582"/>
      <point x="371" y="569" type="curve" smooth="yes"/>
    </contour>
    <contour>
      <point x="244" y="388" type="curve"/>
      <point x="256" y="456" type="line"/>
      <point x="243" y="469"/>
      <point x="231" y="477"/>
      <point x="201" y="477" type="curve" smooth="yes"/>
      <point x="170" y="477"/>
      <point x="143" y="443"/>
      <point x="143" y="398" type="curve" smooth="yes"/>
      <point x="143" y="368"/>
      <point x="157" y="353"/>
      <point x="184" y="353" type="curve" smooth="yes"/>
      <point x="207" y="353"/>
      <point x="229" y="368"/>
    </contour>
  </outline>
</glyph>
<glyph name="guillemotleft" format="1">
  <advance width="510"/>
  <unicode hex="00AB"/>
  <outline>
    <contour>
      <point x="423" y="0" type="line"/>
      <point x="305" y="0" type="line"/>
      <point x="216" y="262" type="line"/>
      <point x="398" y="525" type="line"/>
      <point x="516" y="525" type="line"/>
      <point x="339" y="263" type="line"/>
    </contour>
    <contour>
      <point x="221" y="0" type="line"/>
      <point x="103" y="0" type="line"/>
      <point x="14" y="262" type="line"/>
      <point x="196" y="525" type="line"/>
      <point x="314" y="525" type="line"/>
      <point x="137" y="263" type="line"/>
    </contour>
  </outline>
</glyph>
<glyph name="degree" format="1">
  <advance width="423"/>
  <unicode hex="00B0"/>
  <outline>
    <contour>
      <point x="419" y="531" type="curve" smooth="yes"/>
      <point x="419" y="427"/>
      <point x="340" y="348"/>
      <point x="237" y="348" type="curve" smooth="yes"/>
      <point x="136" y="348"/>
      <point x="56" y="427"/>
      <point x="56" y="531" type="curve" smooth="yes"/>
      <point x="56" y="631"/>
      <point x="136" y="711"/>
      <point x="237" y="711" type="curve" smooth="yes"/>
      <point x="340" y="711"/>
      <point x="419" y="631"/>
    </contour>
    <contour>
      <point x="326" y="531" type="curve" smooth="yes"/>
      <point x="326" y="578"/>
      <point x="286" y="619"/>
      <point x="237" y="619" type="curve" smooth="yes"/>
      <point x="189" y="619"/>
      <point x="149" y="578"/>
      <point x="149" y="531" type="curve" smooth="yes"/>
      <point x="149" y="481"/>
      <point x="189" y="440"/>
      <point x="237" y="440" type="curve" smooth="yes"/>
      <point x="286" y="440"/>
      <point x="326" y="481"/>
    </contour>
  </outline>
</glyph>
<glyph name="paragraph" format="1">
  <advance width="620"/>
  <unicode hex="00B6"/>
  <outline>
    <contour>
      <point x="459" y="-185" type="line"/>
      <point x="354" y="-185" type="line"/>
      <point x="494" y="604" type="line"/>
      <point x="430" y="604" type="line"/>
      <point x="290" y="-185" type="line"/>
      <point x="185" y="-185" type="line"/>
      <point x="262" y="251" type="line"/>
      <point x="254" y="251" type="line" smooth="yes"/>
      <point x="136" y="251"/>
      <point x="67" y="312"/>
      <point x="67" y="429" type="curve" smooth="yes"/>
      <point x="67" y="613"/>
      <point x="206" y="700"/>
      <point x="338" y="700" type="curve" smooth="yes"/>
      <point x="615" y="700" type="line"/>
    </contour>
  </outline>
</glyph>
<glyph name="cedilla" format="1">
  <advance width="400"/>
  <unicode hex="00B8"/>
  <outline>
    <contour>
      <point x="141" y="-193" type="curve" smooth="yes"/>
      <point x="91" y="-193"/>
      <point x="60" y="-180"/>
      <point x="31" y="-157" type="curve"/>
      <point x="59" y="-119" type="line"/>
      <point x="83" y="-136"/>
      <point x="104" y="-145"/>
      <point x="130" y="-145" type="curve" smooth="yes"/>
      <point x="166" y="-145"/>
      <point x="184" y="-131"/>
      <point x="184" y="-105" type="curve" smooth="yes"/>
      <point x="184" y="-91"/>
      <point x="177" y="-81"/>
      <point x="162" y="-81" type="curve" smooth="yes"/>
      <point x="149" y="-81"/>
      <point x="141" y="-84"/>
      <point x="131" y="-90" type="curve"/>
      <point x="98" y="-76" type="line"/>
      <point x="134" y="12" type="line"/>
      <point x="191" y="12" type="line"/>
      <point x="170" y="-42" type="line"/>
      <point x="179" y="-38"/>
      <point x="191" y="-36"/>
      <point x="207" y="-36" type="curve" smooth="yes"/>
      <point x="240" y="-36"/>
      <point x="264" y="-61"/>
      <point x="264" y="-101" type="curve" smooth="yes"/>
      <point x="264" y="-167"/>
      <point x="203" y="-193"/>
    </contour>
  </outline>
</glyph>
<glyph name="ordmasculine" format="1">
  <advance width="398"/>
  <unicode hex="00BA"/>
  <outline>
    <contour>
      <point x="190" y="268" type="curve" smooth="yes"/>
      <point x="107" y="268"/>
      <point x="53" y="326"/>
      <point x="53" y="435" type="curve" smooth="yes"/>
      <point x="53" y="598"/>
      <point x="138" y="711"/>
      <point x="247" y="711" type="curve" smooth="yes"/>
      <point x="330" y="711"/>
      <point x="383" y="652"/>
      <point x="383" y="542" type="curve" smooth="yes"/>
      <point x="383" y="374"/>
      <point x="297" y="268"/>
    </contour>
    <contour>
      <point x="286" y="540" type="curve" smooth="yes"/>
      <point x="286" y="589"/>
      <point x="270" y="620"/>
      <point x="235" y="620" type="curve" smooth="yes"/>
      <point x="178" y="620"/>
      <point x="150" y="526"/>
      <point x="150" y="439" type="curve" smooth="yes"/>
      <point x="150" y="389"/>
      <point x="166" y="359"/>
      <point x="201" y="359" type="curve" smooth="yes"/>
      <point x="258" y="359"/>
      <point x="286" y="458"/>
    </contour>
  </outline>
</glyph>
<glyph name="guillemotright" format="1">
  <advance width="510"/>
  <unicode hex="00BB"/>
  <outline>
    <contour>
      <point x="472" y="263" type="line"/>
      <point x="291" y="0" type="line"/>
      <point x="173" y="0" type="line"/>
      <point x="349" y="262" type="line"/>
      <point x="266" y="525" type="line"/>
      <point x="384" y="525" type="line"/>
    </contour>
    <contour>
      <point x="270" y="263" type="line"/>
      <point x="89" y="0" type="line"/>
      <point x="-29" y="0" type="line"/>
      <point x="147" y="262" type="line"/>
      <point x="64" y="525" type="line"/>
      <point x="182" y="525" type="line"/>
    </contour>
  </outline>
</glyph>
<glyph name="Aring" format="1">
  <advance width="516"/>
  <unicode hex="00C5"/>
  <outline>
    <contour>
      <point x="381" y="654" type="curve"/>
      <point x="433" y="0" type="line"/>
      <point x="304" y="0" type="line"/>
      <point x="297" y="146" type="line"/>
      <point x="140" y="146" type="line"/>
      <point x="81" y="0" type="line"/>
      <point x="-47" y="0" type="line"/>
      <point x="241" y="668" type="line"/>
      <point x="217" y="689"/>
      <point x="202" y="720"/>
      <point x="202" y="757" type="curve" smooth="yes"/>
      <point x="202" y="825"/>
      <point x="253" y="876"/>
      <point x="321" y="876" type="curve" smooth="yes"/>
      <point x="389" y="876"/>
      <point x="440" y="825"/>
      <point x="440" y="757" type="curve" smooth="yes"/>
      <point x="440" y="711"/>
      <point x="417" y="673"/>
    </contour>
    <contour>
      <point x="373" y="757" type="curve" smooth="yes"/>
      <point x="373" y="787"/>
      <point x="350" y="810"/>
      <point x="321" y="810" type="curve" smooth="yes"/>
      <point x="292" y="810"/>
      <point x="269" y="787"/>
      <point x="269" y="757" type="curve" smooth="yes"/>
      <point x="269" y="727"/>
      <point x="292" y="704"/>
      <point x="321" y="704" type="curve" smooth="yes"/>
      <point x="350" y="704"/>
      <point x="373" y="727"/>
    </contour>
    <contour>
      <point x="290" y="263" type="line"/>
      <point x="286" y="346" type="line" smooth="yes"/>
      <point x="283" y="400"/>
      <point x="282" y="481"/>
      <point x="283" y="516" type="curve"/>
      <point x="272" y="480"/>
      <point x="243" y="404"/>
      <point x="221" y="348" type="curve" smooth="yes"/>
      <point x="187" y="263" type="line"/>
    </contour>
  </outline>
</glyph>
<glyph name="AE" format="1">
  <advance width="687"/>
  <unicode hex="00C6"/>
  <outline>
    <contour>
      <point x="610" y="0" type="line"/>
      <point x="257" y="0" type="line"/>
      <point x="282" y="141" type="line"/>
      <point x="135" y="141" type="line"/>
      <point x="63" y="0" type="line"/>
      <point x="-63" y="0" type="line"/>
      <point x="309" y="700" type="line"/>
      <point x="724" y="700" type="line"/>
      <point x="704" y="584" type="line"/>
      <point x="479" y="584" type="line"/>
      <point x="452" y="430" type="line"/>
      <point x="600" y="430" type="line"/>
      <point x="580" y="316" type="line"/>
      <point x="432" y="316" type="line"/>
      <point x="396" y="116" type="line"/>
      <point x="630" y="116" type="line"/>
    </contour>
    <contour>
      <point x="362" y="589" type="curve"/>
      <point x="345" y="552"/>
      <point x="318" y="501"/>
      <point x="298" y="462" type="curve" smooth="yes"/>
      <point x="193" y="255" type="line"/>
      <point x="302" y="255" type="line"/>
      <point x="340" y="471" type="line" smooth="yes"/>
      <point x="346" y="503"/>
      <point x="355" y="554"/>
    </contour>
  </outline>
</glyph>
<glyph name="Ccedilla" format="1">
  <advance width="470"/>
  <unicode hex="00C7"/>
  <outline>
    <contour>
      <point x="180" y="-8" type="line"/>
      <point x="78" y="11"/>
      <point x="33" y="110"/>
      <point x="33" y="244" type="curve" smooth="yes"/>
      <point x="33" y="486"/>
      <point x="136" y="711"/>
      <point x="319" y="711" type="curve" smooth="yes"/>
      <point x="438" y="711"/>
      <point x="480" y="635"/>
      <point x="493" y="534" type="curve"/>
      <point x="370" y="496" type="line"/>
      <point x="362" y="560"/>
      <point x="346" y="586"/>
      <point x="300" y="586" type="curve" smooth="yes"/>
      <point x="217" y="586"/>
      <point x="159" y="422"/>
      <point x="159" y="256" type="curve" smooth="yes"/>
      <point x="159" y="165"/>
      <point x="183" y="114"/>
      <point x="235" y="114" type="curve" smooth="yes"/>
      <point x="278" y="114"/>
      <point x="307" y="139"/>
      <point x="341" y="214" type="curve"/>
      <point x="442" y="168" type="line"/>
      <point x="396" y="57"/>
      <point x="332" y="-3"/>
      <point x="236" y="-10" type="curve"/>
      <point x="224" y="-42" type="line"/>
      <point x="233" y="-38"/>
      <point x="245" y="-36"/>
      <point x="261" y="-36" type="curve" smooth="yes"/>
      <point x="294" y="-36"/>
      <point x="318" y="-60"/>
      <point x="318" y="-99" type="curve" smooth="yes"/>
      <point x="319" y="-166"/>
      <point x="258" y="-193"/>
      <point x="195" y="-193" type="curve" smooth="yes"/>
      <point x="145" y="-193"/>
      <point x="114" y="-180"/>
      <point x="85" y="-157" type="curve"/>
      <point x="113" y="-119" type="line"/>
      <point x="137" y="-136"/>
      <point x="158" y="-145"/>
      <point x="184" y="-145" type="curve" smooth="yes"/>
      <point x="222" y="-145"/>
      <point x="238" y="-129"/>
      <point x="238" y="-104" type="curve" smooth="yes"/>
      <point x="238" y="-91"/>
      <point x="230" y="-81"/>
      <point x="216" y="-81" type="curve" smooth="yes"/>
      <point x="203" y="-81"/>
      <point x="195" y="-84"/>
      <point x="185" y="-90" type="curve"/>
      <point x="152" y="-76" type="line"/>
    </contour>
  </outline>
</glyph>
<glyph name="Eth" format="1">
  <advance width="530"/>
  <unicode hex="00D0"/>
  <outline>
    <contour>
      <point x="65" y="309" type="line"/>
      <point x="37" y="309"/>
      <point x="15" y="309"/>
      <point x="15" y="309" type="curve"/>
      <point x="35" y="421" type="line"/>
      <point x="85" y="421" type="line"/>
      <point x="134" y="700" type="line"/>
      <point x="287" y="700" type="line" smooth="yes"/>
      <point x="426" y="700"/>
      <point x="507" y="628"/>
      <point x="507" y="464" type="curve" smooth="yes"/>
      <point x="507" y="158"/>
      <point x="358" y="0"/>
      <point x="166" y="0" type="curve" smooth="yes"/>
      <point x="11" y="0" type="line"/>
    </contour>
    <contour>
      <point x="210" y="421" type="line"/>
      <point x="292" y="421" type="line"/>
      <point x="272" y="309" type="line"/>
      <point x="272" y="309"/>
      <point x="191" y="309"/>
      <point x="190" y="309" type="curve"/>
      <point x="158" y="122" type="line"/>
      <point x="191" y="122" type="line" smooth="yes"/>
      <point x="333" y="122"/>
      <point x="379" y="299"/>
      <point x="379" y="445" type="curve" smooth="yes"/>
      <point x="379" y="524"/>
      <point x="353" y="578"/>
      <point x="271" y="578" type="curve" smooth="yes"/>
      <point x="238" y="578" type="line"/>
    </contour>
  </outline>
</glyph>
<glyph name="Oslash" format="1">
  <advance width="541"/>
  <unicode hex="00D8"/>
  <outline>
    <contour>
      <point x="69" y="72" type="line"/>
      <point x="44" y="115"/>
      <point x="32" y="174"/>
      <point x="32" y="241" type="curve" smooth="yes"/>
      <point x="32" y="475"/>
      <point x="128" y="711"/>
      <point x="322" y="711" type="curve" smooth="yes"/>
      <point x="352" y="711"/>
      <point x="378" y="706"/>
      <point x="400" y="695" type="curve"/>
      <point x="429" y="750" type="line"/>
      <point x="538" y="750" type="line"/>
      <point x="473" y="627" type="line"/>
      <point x="498" y="583"/>
      <point x="509" y="523"/>
      <point x="509" y="455" type="curve" smooth="yes"/>
      <point x="509" y="219"/>
      <point x="411" y="-11"/>
      <point x="219" y="-11" type="curve" smooth="yes"/>
      <point x="189" y="-11"/>
      <point x="164" y="-6"/>
      <point x="142" y="4" type="curve"/>
      <point x="126" y="-26"/>
      <point x="113" y="-50"/>
      <point x="113" y="-50" type="curve"/>
      <point x="4" y="-50" type="line"/>
    </contour>
    <contour>
      <point x="153" y="230" type="curve"/>
      <point x="341" y="585" type="line"/>
      <point x="331" y="590"/>
      <point x="320" y="593"/>
      <point x="306" y="593" type="curve" smooth="yes"/>
      <point x="207" y="593"/>
      <point x="153" y="433"/>
      <point x="153" y="258" type="curve" smooth="yes"/>
      <point x="153" y="248"/>
      <point x="153" y="239"/>
    </contour>
    <contour>
      <point x="388" y="467" type="curve"/>
      <point x="388" y="467"/>
      <point x="201" y="115"/>
      <point x="200" y="115" type="curve"/>
      <point x="210" y="110"/>
      <point x="222" y="107"/>
      <point x="235" y="107" type="curve" smooth="yes"/>
      <point x="332" y="107"/>
      <point x="388" y="264"/>
      <point x="388" y="437" type="curve" smooth="yes"/>
      <point x="388" y="448"/>
      <point x="388" y="457"/>
    </contour>
  </outline>
</glyph>
<glyph name="Thorn" format="1">
  <advance width="494"/>
  <unicode hex="00DE"/>
  <outline>
    <contour>
      <point x="297" y="590" type="line" smooth="yes"/>
      <point x="417" y="590"/>
      <point x="484" y="529"/>
      <point x="484" y="408" type="curve" smooth="yes"/>
      <point x="484" y="220"/>
      <point x="343" y="141"/>
      <point x="213" y="141" type="curve" smooth="yes"/>
      <point x="161" y="141" type="line"/>
      <point x="136" y="0" type="line"/>
      <point x="11" y="0" type="line"/>
      <point x="134" y="700" type="line"/>
      <point x="259" y="700" type="line"/>
      <point x="240" y="590" type="line"/>
    </contour>
    <contour>
      <point x="357" y="388" type="curve" smooth="yes"/>
      <point x="357" y="435"/>
      <point x="338" y="468"/>
      <point x="275" y="468" type="curve" smooth="yes"/>
      <point x="219" y="468" type="line"/>
      <point x="183" y="263" type="line"/>
      <point x="241" y="263" type="line" smooth="yes"/>
      <point x="313" y="263"/>
      <point x="357" y="309"/>
    </contour>
  </outline>
</glyph>
<glyph name="germandbls" format="1">
  <advance width="501"/>
  <unicode hex="00DF"/>
  <outline>
    <contour>
      <point x="185" y="0" type="curve" smooth="yes"/>
      <point x="170" y="0" type="line"/>
      <point x="189" y="108" type="line"/>
      <point x="201" y="108" type="line" smooth="yes"/>
      <point x="273" y="108"/>
      <point x="325" y="154"/>
      <point x="325" y="256" type="curve" smooth="yes"/>
      <point x="325" y="316"/>
      <point x="289" y="342"/>
      <point x="238" y="342" type="curve" smooth="yes"/>
      <point x="230" y="342" type="line"/>
      <point x="249" y="449" type="line"/>
      <point x="258" y="449" type="line" smooth="yes"/>
      <point x="314" y="449"/>
      <point x="353" y="488"/>
      <point x="353" y="557" type="curve" smooth="yes"/>
      <point x="353" y="596"/>
      <point x="329" y="616"/>
      <point x="293" y="616" type="curve" smooth="yes"/>
      <point x="244" y="616"/>
      <point x="217" y="590"/>
      <point x="207" y="536" type="curve" smooth="yes"/>
      <point x="88" y="-134" type="line"/>
      <point x="-40" y="-193" type="line"/>
      <point x="88" y="531" type="line" smooth="yes"/>
      <point x="112" y="667"/>
      <point x="191" y="726"/>
      <point x="310" y="726" type="curve" smooth="yes"/>
      <point x="413" y="726"/>
      <point x="474" y="670"/>
      <point x="474" y="577" type="curve" smooth="yes"/>
      <point x="474" y="484"/>
      <point x="427" y="427"/>
      <point x="356" y="402" type="curve"/>
      <point x="407" y="381"/>
      <point x="445" y="343"/>
      <point x="445" y="264" type="curve" smooth="yes"/>
      <point x="445" y="102"/>
      <point x="351" y="0"/>
    </contour>
  </outline>
</glyph>
<glyph name="ae" format="1">
  <advance width="680"/>
  <unicode hex="00E6"/>
  <outline>
    <contour>
      <point x="483" y="536" type="curve" smooth="yes"/>
      <point x="593" y="536"/>
      <point x="640" y="445"/>
      <point x="640" y="331" type="curve" smooth="yes"/>
      <point x="640" y="296"/>
      <point x="635" y="256"/>
      <point x="627" y="218" type="curve"/>
      <point x="362" y="218" type="line"/>
      <point x="356" y="137"/>
      <point x="384" y="101"/>
      <point x="430" y="101" type="curve" smooth="yes"/>
      <point x="468" y="101"/>
      <point x="492" y="116"/>
      <point x="518" y="147" type="curve"/>
      <point x="593" y="84" type="line"/>
      <point x="546" y="20"/>
      <point x="487" y="-11"/>
      <point x="412" y="-11" type="curve" smooth="yes"/>
      <point x="350" y="-11"/>
      <point x="303" y="17"/>
      <point x="280" y="65" type="curve"/>
      <point x="231" y="18"/>
      <point x="182" y="-11"/>
      <point x="123" y="-11" type="curve" smooth="yes"/>
      <point x="38" y="-11"/>
      <point x="-11" y="46"/>
      <point x="-11" y="138" type="curve" smooth="yes"/>
      <point x="-11" y="270"/>
      <point x="79" y="347"/>
      <point x="184" y="347" type="curve" smooth="yes"/>
      <point x="230" y="347"/>
      <point x="248" y="340"/>
      <point x="268" y="326" type="curve"/>
      <point x="276" y="366" type="line" smooth="yes"/>
      <point x="277" y="372"/>
      <point x="278" y="378"/>
      <point x="278" y="384" type="curve" smooth="yes"/>
      <point x="278" y="411"/>
      <point x="263" y="431"/>
      <point x="224" y="431" type="curve" smooth="yes"/>
      <point x="181" y="431"/>
      <point x="149" y="421"/>
      <point x="112" y="399" type="curve"/>
      <point x="80" y="485" type="line"/>
      <point x="133" y="518"/>
      <point x="187" y="536"/>
      <point x="251" y="536" type="curve" smooth="yes"/>
      <point x="324" y="536"/>
      <point x="350" y="507"/>
      <point x="363" y="474" type="curve"/>
      <point x="383" y="499"/>
      <point x="425" y="536"/>
    </contour>
    <contour>
      <point x="525" y="315" type="line"/>
      <point x="528" y="379"/>
      <point x="517" y="430"/>
      <point x="466" y="430" type="curve" smooth="yes"/>
      <point x="422" y="430"/>
      <point x="393" y="392"/>
      <point x="376" y="315" type="curve"/>
    </contour>
    <contour>
      <point x="237" y="144" type="curve"/>
      <point x="250" y="222" type="line"/>
      <point x="234" y="237"/>
      <point x="216" y="247"/>
      <point x="183" y="247" type="curve" smooth="yes"/>
      <point x="144" y="247"/>
      <point x="112" y="211"/>
      <point x="112" y="151" type="curve" smooth="yes"/>
      <point x="112" y="120"/>
      <point x="127" y="94"/>
      <point x="160" y="94" type="curve" smooth="yes"/>
      <point x="192" y="94"/>
      <point x="223" y="117"/>
    </contour>
  </outline>
</glyph>
<glyph name="ccedilla" format="1">
  <advance width="400"/>
  <unicode hex="00E7"/>
  <outline>
    <contour>
      <point x="135" y="-7" type="line"/>
      <point x="58" y="10"/>
      <point x="10" y="78"/>
      <point x="10" y="191" type="curve" smooth="yes"/>
      <point x="10" y="403"/>
      <point x="121" y="536"/>
      <point x="251" y="536" type="curve" smooth="yes"/>
      <point x="332" y="536"/>
      <point x="380" y="495"/>
      <point x="402" y="417" type="curve"/>
      <point x="297" y="353" type="line"/>
      <point x="285" y="396"/>
      <point x="268" y="424"/>
      <point x="233" y="424" type="curve" smooth="yes"/>
      <point x="168" y="424"/>
      <point x="130" y="310"/>
      <point x="130" y="203" type="curve" smooth="yes"/>
      <point x="130" y="140"/>
      <point x="149" y="101"/>
      <point x="192" y="101" type="curve" smooth="yes"/>
      <point x="226" y="101"/>
      <point x="256" y="134"/>
      <point x="278" y="178" type="curve"/>
      <point x="356" y="115" type="line"/>
      <point x="318" y="47"/>
      <point x="264" y="-4"/>
      <point x="191" y="-10" type="curve"/>
      <point x="179" y="-42" type="line"/>
      <point x="188" y="-38"/>
      <point x="200" y="-36"/>
      <point x="216" y="-36" type="curve" smooth="yes"/>
      <point x="249" y="-36"/>
      <point x="273" y="-60"/>
      <point x="273" y="-99" type="curve" smooth="yes"/>
      <point x="273" y="-167"/>
      <point x="213" y="-193"/>
      <point x="150" y="-193" type="curve" smooth="yes"/>
      <point x="100" y="-193"/>
      <point x="69" y="-180"/>
      <point x="40" y="-157" type="curve"/>
      <point x="68" y="-119" type="line"/>
      <point x="92" y="-136"/>
      <point x="113" y="-145"/>
      <point x="139" y="-145" type="curve" smooth="yes"/>
      <point x="177" y="-145"/>
      <point x="193" y="-129"/>
      <point x="193" y="-104" type="curve" smooth="yes"/>
      <point x="193" y="-91"/>
      <point x="185" y="-81"/>
      <point x="171" y="-81" type="curve" smooth="yes"/>
      <point x="158" y="-81"/>
      <point x="150" y="-84"/>
      <point x="140" y="-90" type="curve"/>
      <point x="107" y="-76" type="line"/>
    </contour>
  </outline>
</glyph>
<glyph name="eth" format="1">
  <advance width="468"/>
  <unicode hex="00F0"/>
  <outline>
    <contour>
      <point x="176" y="-11" type="curve" smooth="yes"/>
      <point x="73" y="-11"/>
      <point x="7" y="55"/>
      <point x="7" y="177" type="curve" smooth="yes"/>
      <point x="7" y="374"/>
      <point x="125" y="480"/>
      <point x="230" y="480" type="curve" smooth="yes"/>
      <point x="272" y="480"/>
      <point x="301" y="467"/>
      <point x="328" y="434" type="curve"/>
      <point x="326" y="480"/>
      <point x="314" y="520"/>
      <point x="293" y="550" type="curve"/>
      <point x="237" y="503" type="line"/>
      <point x="187" y="560" type="line"/>
      <point x="235" y="601" type="line"/>
      <point x="217" y="610"/>
      <point x="196" y="616"/>
      <point x="172" y="619" type="curve"/>
      <point x="185" y="711" type="line"/>
      <point x="236" y="706"/>
      <point x="281" y="692"/>
      <point x="316" y="669" type="curve"/>
      <point x="366" y="711" type="line"/>
      <point x="415" y="653" type="line"/>
      <point x="371" y="616" type="line"/>
      <point x="408" y="565"/>
      <point x="427" y="494"/>
      <point x="427" y="404" type="curve" smooth="yes"/>
      <point x="427" y="145"/>
      <point x="337" y="-11"/>
    </contour>
    <contour>
      <point x="291" y="276" type="curve" smooth="yes"/>
      <point x="291" y="336"/>
      <point x="271" y="368"/>
      <point x="228" y="368" type="curve" smooth="yes"/>
      <point x="164" y="368"/>
      <point x="128" y="295"/>
      <point x="128" y="191" type="curve" smooth="yes"/>
      <point x="128" y="132"/>
      <point x="148" y="101"/>
      <point x="192" y="101" type="curve" smooth="yes"/>
      <point x="256" y="101"/>
      <point x="291" y="179"/>
    </contour>
  </outline>
</glyph>
<glyph name="oslash" format="1">
  <advance width="464"/>
  <unicode hex="00F8"/>
  <outline>
    <contour>
      <point x="52" y="44" type="line"/>
      <point x="25" y="79"/>
      <point x="10" y="130"/>
      <point x="10" y="195" type="curve" smooth="yes"/>
      <point x="10" y="400"/>
      <point x="113" y="536"/>
      <point x="246" y="536" type="curve" smooth="yes"/>
      <point x="267" y="536"/>
      <point x="287" y="533"/>
      <point x="305" y="527" type="curve"/>
      <point x="330" y="575" type="line"/>
      <point x="422" y="575" type="line"/>
      <point x="372" y="479" type="line"/>
      <point x="399" y="444"/>
      <point x="414" y="395"/>
      <point x="414" y="331" type="curve" smooth="yes"/>
      <point x="414" y="125"/>
      <point x="310" y="-11"/>
      <point x="177" y="-11" type="curve" smooth="yes"/>
      <point x="156" y="-11"/>
      <point x="137" y="-8"/>
      <point x="120" y="-2" type="curve"/>
      <point x="95" y="-50" type="line"/>
      <point x="3" y="-50" type="line"/>
    </contour>
    <contour>
      <point x="123" y="171" type="curve"/>
      <point x="254" y="426" type="line"/>
      <point x="249" y="428"/>
      <point x="241" y="430"/>
      <point x="234" y="430" type="curve" smooth="yes"/>
      <point x="162" y="430"/>
      <point x="123" y="312"/>
      <point x="122" y="198" type="curve" smooth="yes"/>
      <point x="122" y="188"/>
      <point x="122" y="179"/>
    </contour>
    <contour>
      <point x="300" y="346" type="curve"/>
      <point x="172" y="98" type="line"/>
      <point x="178" y="96"/>
      <point x="184" y="95"/>
      <point x="191" y="95" type="curve" smooth="yes"/>
      <point x="265" y="95"/>
      <point x="300" y="225"/>
      <point x="300" y="329" type="curve" smooth="yes"/>
      <point x="300" y="335"/>
      <point x="300" y="341"/>
    </contour>
  </outline>
</glyph>
<glyph name="thorn" format="1">
  <advance width="464"/>
  <unicode hex="00FE"/>
  <outline>
    <contour>
      <point x="407" y="263" type="curve" smooth="yes"/>
      <point x="380" y="102"/>
      <point x="309" y="-11"/>
      <point x="194" y="-11" type="curve" smooth="yes"/>
      <point x="159" y="-11"/>
      <point x="130" y="4"/>
      <point x="112" y="29" type="curve"/>
      <point x="83" y="-134" type="line"/>
      <point x="-45" y="-193" type="line"/>
      <point x="107" y="670" type="line"/>
      <point x="236" y="729" type="line"/>
      <point x="193" y="489" type="line"/>
      <point x="224" y="517"/>
      <point x="262" y="536"/>
      <point x="300" y="536" type="curve" smooth="yes"/>
      <point x="376" y="536"/>
      <point x="417" y="484"/>
      <point x="417" y="373" type="curve" smooth="yes"/>
      <point x="417" y="341"/>
      <point x="414" y="305"/>
    </contour>
    <contour>
      <point x="287" y="259" type="curve" smooth="yes"/>
      <point x="294" y="298"/>
      <point x="298" y="330"/>
      <point x="298" y="355" type="curve" smooth="yes"/>
      <point x="298" y="403"/>
      <point x="284" y="426"/>
      <point x="252" y="426" type="curve" smooth="yes"/>
      <point x="223" y="426"/>
      <point x="192" y="403"/>
      <point x="174" y="382" type="curve"/>
      <point x="132" y="144" type="line"/>
      <point x="144" y="120"/>
      <point x="164" y="99"/>
      <point x="197" y="99" type="curve" smooth="yes"/>
      <point x="239" y="99"/>
      <point x="266" y="137"/>
    </contour>
  </outline>
</glyph>
<glyph name="dotlessi" format="1">
  <advance width="238"/>
  <unicode hex="0131"/>
  <outline>
    <contour>
      <point x="112" y="0" type="line"/>
      <point x="-6" y="0" type="line"/>
      <point x="87" y="525" type="line"/>
      <point x="205" y="525" type="line"/>
    </contour>
  </outline>
</glyph>
<glyph name="Lslash" format="1">
  <advance width="409"/>
  <unicode hex="0141"/>
  <outline>
    <contour>
      <point x="68" y="368" type="line"/>
      <point x="126" y="700" type="line"/>
      <point x="251" y="700" type="line"/>
      <point x="205" y="434" type="line"/>
      <point x="304" y="500" type="line"/>
      <point x="282" y="375" type="line"/>
      <point x="183" y="309" type="line"/>
      <point x="150" y="122" type="line"/>
      <point x="365" y="122" type="line"/>
      <point x="343" y="0" type="line"/>
      <point x="3" y="0" type="line"/>
      <point x="46" y="243" type="line"/>
      <point x="-8" y="207" type="line"/>
      <point x="14" y="332" type="line"/>
    </contour>
  </outline>
</glyph>
<glyph name="lslash" format="1">
  <advance width="238"/>
  <unicode hex="0142"/>
  <outline>
    <contour>
      <point x="58" y="369" type="line"/>
      <point x="112" y="670" type="line"/>
      <point x="241" y="729" type="line"/>
      <point x="188" y="429" type="line"/>
      <point x="245" y="468" type="line"/>
      <point x="223" y="343" type="line"/>
      <point x="166" y="304" type="line"/>
      <point x="112" y="0" type="line"/>
      <point x="-6" y="0" type="line"/>
      <point x="36" y="244" type="line"/>
      <point x="37" y="244"/>
      <point x="-21" y="205"/>
      <point x="-21" y="205" type="curve"/>
      <point x="1" y="330" type="line"/>
    </contour>
  </outline>
</glyph>
<glyph name="OE" format="1">
  <advance width="749"/>
  <unicode hex="0152"/>
  <outline>
    <contour>
      <point x="453" y="635" type="curve"/>
      <point x="464" y="700" type="line"/>
      <point x="786" y="700" type="line"/>
      <point x="765" y="580" type="line"/>
      <point x="535" y="580" type="line"/>
      <point x="509" y="432" type="line"/>
      <point x="662" y="432" type="line"/>
      <point x="641" y="314" type="line"/>
      <point x="488" y="314" type="line"/>
      <point x="454" y="120" type="line"/>
      <point x="693" y="120" type="line"/>
      <point x="672" y="0" type="line"/>
      <point x="341" y="0" type="line"/>
      <point x="352" y="65" type="line"/>
      <point x="321" y="16"/>
      <point x="277" y="-11"/>
      <point x="211" y="-11" type="curve" smooth="yes"/>
      <point x="88" y="-11"/>
      <point x="32" y="94"/>
      <point x="32" y="241" type="curve" smooth="yes"/>
      <point x="32" y="472"/>
      <point x="128" y="711"/>
      <point x="322" y="711" type="curve" smooth="yes"/>
      <point x="390" y="711"/>
      <point x="431" y="681"/>
    </contour>
    <contour>
      <point x="373" y="349" type="curve" smooth="yes"/>
      <point x="395" y="498"/>
      <point x="377" y="586"/>
      <point x="303" y="586" type="curve" smooth="yes"/>
      <point x="208" y="586"/>
      <point x="160" y="421"/>
      <point x="160" y="244" type="curve" smooth="yes"/>
      <point x="160" y="161"/>
      <point x="183" y="114"/>
      <point x="238" y="114" type="curve" smooth="yes"/>
      <point x="312" y="114"/>
      <point x="351" y="200"/>
    </contour>
  </outline>
</glyph>
<glyph name="oe" format="1">
  <advance width="713"/>
  <unicode hex="0153"/>
  <outline>
    <contour>
      <point x="317" y="48" type="curve"/>
      <point x="279" y="10"/>
      <point x="231" y="-11"/>
      <point x="177" y="-11" type="curve" smooth="yes"/>
      <point x="75" y="-11"/>
      <point x="10" y="60"/>
      <point x="10" y="194" type="curve" smooth="yes"/>
      <point x="10" y="398"/>
      <point x="112" y="536"/>
      <point x="246" y="536" type="curve" smooth="yes"/>
      <point x="301" y="536"/>
      <point x="345" y="515"/>
      <point x="375" y="475" type="curve"/>
      <point x="415" y="515"/>
      <point x="463" y="536"/>
      <point x="516" y="536" type="curve" smooth="yes"/>
      <point x="625" y="536"/>
      <point x="672" y="448"/>
      <point x="673" y="335" type="curve" smooth="yes"/>
      <point x="673" y="299"/>
      <point x="668" y="257"/>
      <point x="660" y="218" type="curve"/>
      <point x="395" y="218" type="line"/>
      <point x="389" y="137"/>
      <point x="417" y="101"/>
      <point x="463" y="101" type="curve" smooth="yes"/>
      <point x="501" y="101"/>
      <point x="525" y="116"/>
      <point x="551" y="147" type="curve"/>
      <point x="626" y="84" type="line"/>
      <point x="579" y="20"/>
      <point x="520" y="-11"/>
      <point x="445" y="-11" type="curve" smooth="yes"/>
      <point x="388" y="-11"/>
      <point x="345" y="11"/>
    </contour>
    <contour>
      <point x="558" y="315" type="line"/>
      <point x="561" y="379"/>
      <point x="550" y="430"/>
      <point x="499" y="430" type="curve" smooth="yes"/>
      <point x="455" y="430"/>
      <point x="426" y="392"/>
      <point x="409" y="315" type="curve"/>
    </contour>
    <contour>
      <point x="289" y="261" type="curve" smooth="yes"/>
      <point x="303" y="358"/>
      <point x="290" y="424"/>
      <point x="234" y="424" type="curve" smooth="yes"/>
      <point x="164" y="424"/>
      <point x="129" y="314"/>
      <point x="129" y="201" type="curve" smooth="yes"/>
      <point x="129" y="139"/>
      <point x="147" y="101"/>
      <point x="191" y="101" type="curve" smooth="yes"/>
      <point x="247" y="101"/>
      <point x="276" y="173"/>
    </contour>
  </outline>
</glyph>
<glyph name="florin" format="1">
  <advance width="363"/>
  <unicode hex="0192"/>
  <outline>
    <contour>
      <point x="386" y="593" type="line"/>
      <point x="365" y="600"/>
      <point x="344" y="604"/>
      <point x="321" y="604" type="curve" smooth="yes"/>
      <point x="288" y="604"/>
      <point x="270" y="590"/>
      <point x="263" y="553" type="curve" smooth="yes"/>
      <point x="257" y="522" type="line"/>
      <point x="351" y="522" type="line"/>
      <point x="332" y="413" type="line"/>
      <point x="238" y="413" type="line"/>
      <point x="141" y="-137" type="line"/>
      <point x="12" y="-196" type="line"/>
      <point x="120" y="413" type="line"/>
      <point x="67" y="413" type="line"/>
      <point x="86" y="522" type="line"/>
      <point x="139" y="522" type="line"/>
      <point x="148" y="570" type="line" smooth="yes"/>
      <point x="166" y="666"/>
      <point x="231" y="708"/>
      <point x="307" y="708" type="curve" smooth="yes"/>
      <point x="348" y="708"/>
      <point x="377" y="702"/>
      <point x="403" y="693" type="curve"/>
    </contour>
  </outline>
</glyph>
<glyph name="circumflex" format="1">
  <advance width="400"/>
  <unicode hex="02C6"/>
  <outline>
    <contour>
      <point x="412" y="595" type="line"/>
      <point x="324" y="595" type="line"/>
      <point x="260" y="668" type="line"/>
      <point x="170" y="595" type="line"/>
      <point x="84" y="595" type="line"/>
      <point x="221" y="755" type="line"/>
      <point x="331" y="755" type="line"/>
    </contour>
  </outline>
</glyph>
<glyph name="caron" format="1">
  <advance width="400"/>
  <unicode hex="02C7"/>
  <outline>
    <contour>
      <point x="441" y="755" type="line"/>
      <point x="304" y="595" type="line"/>
      <point x="194" y="595" type="line"/>
      <point x="113" y="755" type="line"/>
      <point x="201" y="755" type="line"/>
      <point x="265" y="682" type="line"/>
      <point x="355" y="755" type="line"/>
    </contour>
  </outline>
</glyph>
<glyph name="breve" format="1">
  <advance width="400"/>
  <unicode hex="02D8"/>
  <outline>
    <contour>
      <point x="436" y="755" type="line"/>
      <point x="405" y="651"/>
      <point x="347" y="595"/>
      <point x="251" y="595" type="curve" smooth="yes"/>
      <point x="157" y="595"/>
      <point x="113" y="651"/>
      <point x="118" y="755" type="curve"/>
      <point x="197" y="755" type="line"/>
      <point x="201" y="708"/>
      <point x="215" y="685"/>
      <point x="267" y="685" type="curve" smooth="yes"/>
      <point x="317" y="685"/>
      <point x="341" y="708"/>
      <point x="361" y="755" type="curve"/>
    </contour>
  </outline>
</glyph>
<glyph name="dotaccent" format="1">
  <advance width="400"/>
  <unicode hex="02D9"/>
  <outline>
    <contour>
      <point x="322" y="666" type="curve" smooth="yes"/>
      <point x="322" y="628"/>
      <point x="289" y="595"/>
      <point x="251" y="595" type="curve" smooth="yes"/>
      <point x="212" y="595"/>
      <point x="179" y="628"/>
      <point x="179" y="666" type="curve" smooth="yes"/>
      <point x="179" y="705"/>
      <point x="212" y="738"/>
      <point x="251" y="738" type="curve" smooth="yes"/>
      <point x="289" y="738"/>
      <point x="322" y="705"/>
    </contour>
  </outline>
</glyph>
<glyph name="ring" format="1">
  <advance width="400"/>
  <unicode hex="02DA"/>
  <outline>
    <contour>
      <point x="373" y="713" type="curve" smooth="yes"/>
      <point x="373" y="645"/>
      <point x="322" y="595"/>
      <point x="254" y="595" type="curve" smooth="yes"/>
      <point x="186" y="595"/>
      <point x="135" y="645"/>
      <point x="135" y="713" type="curve" smooth="yes"/>
      <point x="135" y="781"/>
      <point x="186" y="832"/>
      <point x="254" y="832" type="curve" smooth="yes"/>
      <point x="322" y="832"/>
      <point x="373" y="781"/>
    </contour>
    <contour>
      <point x="306" y="713" type="curve" smooth="yes"/>
      <point x="306" y="743"/>
      <point x="283" y="766"/>
      <point x="254" y="766" type="curve" smooth="yes"/>
      <point x="225" y="766"/>
      <point x="202" y="743"/>
      <point x="202" y="713" type="curve" smooth="yes"/>
      <point x="202" y="683"/>
      <point x="225" y="660"/>
      <point x="254" y="660" type="curve" smooth="yes"/>
      <point x="283" y="660"/>
      <point x="306" y="683"/>
    </contour>
  </outline>
</glyph>
<glyph name="ogonek" format="1">
  <advance width="400"/>
  <unicode hex="02DB"/>
  <outline>
    <contour>
      <point x="254" y="-152" type="line"/>
      <point x="215" y="-177"/>
      <point x="178" y="-193"/>
      <point x="130" y="-193" type="curve" smooth="yes"/>
      <point x="82" y="-193"/>
      <point x="54" y="-171"/>
      <point x="54" y="-127" type="curve" smooth="yes"/>
      <point x="54" y="-72"/>
      <point x="97" y="-35"/>
      <point x="155" y="0" type="curve"/>
      <point x="215" y="0" type="line"/>
      <point x="156" y="-48"/>
      <point x="137" y="-74"/>
      <point x="137" y="-104" type="curve" smooth="yes"/>
      <point x="137" y="-121"/>
      <point x="148" y="-134"/>
      <point x="167" y="-134" type="curve" smooth="yes"/>
      <point x="188" y="-134"/>
      <point x="204" y="-129"/>
      <point x="236" y="-113" type="curve"/>
    </contour>
  </outline>
</glyph>
<glyph name="tilde" format="1">
  <advance width="400"/>
  <unicode hex="02DC"/>
  <outline>
    <contour>
      <point x="428" y="722" type="line"/>
      <point x="414" y="642"/>
      <point x="365" y="592"/>
      <point x="307" y="592" type="curve" smooth="yes"/>
      <point x="271" y="592"/>
      <point x="257" y="600"/>
      <point x="226" y="620" type="curve" smooth="yes"/>
      <point x="203" y="635"/>
      <point x="196" y="638"/>
      <point x="184" y="638" type="curve" smooth="yes"/>
      <point x="168" y="638"/>
      <point x="160" y="627"/>
      <point x="149" y="595" type="curve"/>
      <point x="72" y="595" type="line"/>
      <point x="86" y="675"/>
      <point x="135" y="725"/>
      <point x="193" y="725" type="curve" smooth="yes"/>
      <point x="229" y="725"/>
      <point x="243" y="717"/>
      <point x="274" y="697" type="curve" smooth="yes"/>
      <point x="297" y="682"/>
      <point x="304" y="679"/>
      <point x="316" y="679" type="curve" smooth="yes"/>
      <point x="332" y="679"/>
      <point x="341" y="690"/>
      <point x="351" y="722" type="curve"/>
    </contour>
  </outline>
</glyph>
<glyph name="hungarumlaut" format="1">
  <advance width="400"/>
  <unicode hex="02DD"/>
  <outline>
    <contour>
      <point x="569" y="755" type="line"/>
      <point x="396" y="595" type="line"/>
      <point x="302" y="595" type="line"/>
      <point x="422" y="755" type="line"/>
    </contour>
    <contour>
      <point x="379" y="755" type="line"/>
      <point x="206" y="595" type="line"/>
      <point x="112" y="595" type="line"/>
      <point x="232" y="755" type="line"/>
    </contour>
  </outline>
</glyph>
<glyph name="endash" format="1">
  <advance width="420"/>
  <unicode hex="2013"/>
  <outline>
    <contour>
      <point x="359" y="299" type="line"/>
      <point x="29" y="299" type="line"/>
      <point x="51" y="427" type="line"/>
      <point x="381" y="427" type="line"/>
    </contour>
  </outline>
</glyph>
<glyph name="emdash" format="1">
  <advance width="550"/>
  <unicode hex="2014"/>
  <outline>
    <contour>
      <point x="489" y="299" type="line"/>
      <point x="29" y="299" type="line"/>
      <point x="51" y="427" type="line"/>
      <point x="511" y="427" type="line"/>
    </contour>
  </outline>
</glyph>
<glyph name="quoteleft" format="1">
  <advance width="260"/>
  <unicode hex="2018"/>
  <unicode hex="02BB"/>
  <outline>
    <contour>
      <point x="272" y="700" type="line"/>
      <point x="215" y="447" type="line"/>
      <point x="75" y="447" type="line"/>
      <point x="191" y="700" type="line"/>
    </contour>
  </outline>
</glyph>
<glyph name="quoteright" format="1">
  <advance width="260"/>
  <unicode hex="2019"/>
  <unicode hex="02BC"/>
  <outline>
    <contour>
      <point x="270" y="700" type="line"/>
      <point x="154" y="447" type="line"/>
      <point x="73" y="447" type="line"/>
      <point x="130" y="700" type="line"/>
    </contour>
  </outline>
</glyph>
<glyph name="quotesinglbase" format="1">
  <advance width="260"/>
  <unicode hex="201A"/>
  <outline>
    <contour>
      <point x="165" y="147" type="line"/>
      <point x="48" y="-106" type="line"/>
      <point x="-33" y="-106" type="line"/>
      <point x="25" y="147" type="line"/>
    </contour>
  </outline>
</glyph>
<glyph name="quotedblleft" format="1">
  <advance width="475"/>
  <unicode hex="201C"/>
  <outline>
    <contour>
      <point x="487" y="700" type="line"/>
      <point x="430" y="447" type="line"/>
      <point x="290" y="447" type="line"/>
      <point x="406" y="700" type="line"/>
    </contour>
    <contour>
      <point x="272" y="700" type="line"/>
      <point x="215" y="447" type="line"/>
      <point x="75" y="447" type="line"/>
      <point x="191" y="700" type="line"/>
    </contour>
  </outline>
</glyph>
<glyph name="quotedblright" format="1">
  <advance width="475"/>
  <unicode hex="201D"/>
  <outline>
    <contour>
      <point x="485" y="700" type="line"/>
      <point x="369" y="447" type="line"/>
      <point x="288" y="447" type="line"/>
      <point x="345" y="700" type="line"/>
    </contour>
    <contour>
      <point x="270" y="700" type="line"/>
      <point x="154" y="447" type="line"/>
      <point x="73" y="447" type="line"/>
      <point x="130" y="700" type="line"/>
    </contour>
  </outline>
</glyph>
<glyph name="quotedblbase" format="1">
  <advance width="475"/>
  <unicode hex="201E"/>
  <outline>
    <contour>
      <point x="380" y="147" type="line"/>
      <point x="263" y="-106" type="line"/>
      <point x="182" y="-106" type="line"/>
      <point x="240" y="147" type="line"/>
    </contour>
    <contour>
      <point x="165" y="147" type="line"/>
      <point x="48" y="-106" type="line"/>
      <point x="-33" y="-106" type="line"/>
      <point x="25" y="147" type="line"/>
    </contour>
  </outline>
</glyph>
<glyph name="dagger" format="1">
  <advance width="464"/>
  <unicode hex="2020"/>
  <outline>
    <contour>
      <point x="441" y="368" type="line"/>
      <point x="296" y="368" type="line"/>
      <point x="213" y="-100" type="line"/>
      <point x="93" y="-100" type="line"/>
      <point x="176" y="368" type="line"/>
      <point x="41" y="368" type="line"/>
      <point x="62" y="489" type="line"/>
      <point x="197" y="489" type="line"/>
      <point x="234" y="700" type="line"/>
      <point x="354" y="700" type="line"/>
      <point x="317" y="489" type="line"/>
      <point x="462" y="489" type="line"/>
    </contour>
  </outline>
</glyph>
<glyph name="daggerdbl" format="1">
  <advance width="464"/>
  <unicode hex="2021"/>
  <outline>
    <contour>
      <point x="395" y="110" type="line"/>
      <point x="250" y="110" type="line"/>
      <point x="213" y="-100" type="line"/>
      <point x="93" y="-100" type="line"/>
      <point x="130" y="110" type="line"/>
      <point x="-5" y="110" type="line"/>
      <point x="17" y="231" type="line"/>
      <point x="152" y="231" type="line"/>
      <point x="176" y="368" type="line"/>
      <point x="41" y="368" type="line"/>
      <point x="62" y="489" type="line"/>
      <point x="197" y="489" type="line"/>
      <point x="234" y="700" type="line"/>
      <point x="354" y="700" type="line"/>
      <point x="317" y="489" type="line"/>
      <point x="462" y="489" type="line"/>
      <point x="441" y="368" type="line"/>
      <point x="296" y="368" type="line"/>
      <point x="272" y="231" type="line"/>
      <point x="417" y="231" type="line"/>
    </contour>
  </outline>
</glyph>
<glyph name="ellipsis" format="1">
  <advance width="738"/>
  <unicode hex="2026"/>
  <outline>
    <contour>
      <point x="649" y="72" type="curve" smooth="yes"/>
      <point x="649" y="27"/>
      <point x="611" y="-11"/>
      <point x="566" y="-11" type="curve" smooth="yes"/>
      <point x="521" y="-11"/>
      <point x="483" y="27"/>
      <point x="483" y="72" type="curve" smooth="yes"/>
      <point x="483" y="117"/>
      <point x="521" y="155"/>
      <point x="566" y="155" type="curve" smooth="yes"/>
      <point x="611" y="155"/>
      <point x="649" y="117"/>
    </contour>
    <contour>
      <point x="403" y="72" type="curve" smooth="yes"/>
      <point x="403" y="27"/>
      <point x="365" y="-11"/>
      <point x="320" y="-11" type="curve" smooth="yes"/>
      <point x="275" y="-11"/>
      <point x="237" y="27"/>
      <point x="237" y="72" type="curve" smooth="yes"/>
      <point x="237" y="117"/>
      <point x="275" y="155"/>
      <point x="320" y="155" type="curve" smooth="yes"/>
      <point x="365" y="155"/>
      <point x="403" y="117"/>
    </contour>
    <contour>
      <point x="157" y="72" type="curve" smooth="yes"/>
      <point x="157" y="27"/>
      <point x="119" y="-11"/>
      <point x="74" y="-11" type="curve" smooth="yes"/>
      <point x="29" y="-11"/>
      <point x="-9" y="27"/>
      <point x="-9" y="72" type="curve" smooth="yes"/>
      <point x="-9" y="117"/>
      <point x="29" y="155"/>
      <point x="74" y="155" type="curve" smooth="yes"/>
      <point x="119" y="155"/>
      <point x="157" y="117"/>
    </contour>
  </outline>
</glyph>
<glyph name="perthousand" format="1">
  <advance width="1240"/>
  <unicode hex="2030"/>
  <outline>
    <contour>
      <point x="181" y="276" type="curve" smooth="yes"/>
      <point x="92" y="276"/>
      <point x="45" y="337"/>
      <point x="46" y="439" type="curve" smooth="yes"/>
      <point x="48" y="593"/>
      <point x="116" y="711"/>
      <point x="236" y="711" type="curve" smooth="yes"/>
      <point x="327" y="711"/>
      <point x="374" y="650"/>
      <point x="373" y="550" type="curve" smooth="yes"/>
      <point x="372" y="397"/>
      <point x="301" y="276"/>
    </contour>
    <contour>
      <point x="712" y="700" type="line"/>
      <point x="254" y="0" type="line"/>
      <point x="153" y="0" type="line"/>
      <point x="611" y="700" type="line"/>
    </contour>
    <contour>
      <point x="1007" y="-11" type="curve" smooth="yes"/>
      <point x="918" y="-11"/>
      <point x="871" y="50"/>
      <point x="872" y="152" type="curve" smooth="yes"/>
      <point x="874" y="306"/>
      <point x="942" y="424"/>
      <point x="1062" y="424" type="curve" smooth="yes"/>
      <point x="1153" y="424"/>
      <point x="1200" y="363"/>
      <point x="1199" y="263" type="curve" smooth="yes"/>
      <point x="1198" y="110"/>
      <point x="1127" y="-11"/>
    </contour>
    <contour>
      <point x="629" y="-11" type="curve" smooth="yes"/>
      <point x="540" y="-11"/>
      <point x="493" y="50"/>
      <point x="494" y="152" type="curve" smooth="yes"/>
      <point x="496" y="306"/>
      <point x="564" y="424"/>
      <point x="684" y="424" type="curve" smooth="yes"/>
      <point x="775" y="424"/>
      <point x="822" y="363"/>
      <point x="821" y="263" type="curve" smooth="yes"/>
      <point x="820" y="110"/>
      <point x="749" y="-11"/>
    </contour>
    <contour>
      <point x="272" y="550" type="curve" smooth="yes"/>
      <point x="273" y="596"/>
      <point x="259" y="621"/>
      <point x="226" y="621" type="curve" smooth="yes"/>
      <point x="169" y="621"/>
      <point x="149" y="531"/>
      <point x="147" y="434" type="curve" smooth="yes"/>
      <point x="146" y="389"/>
      <point x="159" y="365"/>
      <point x="192" y="365" type="curve" smooth="yes"/>
      <point x="250" y="365"/>
      <point x="270" y="468"/>
    </contour>
    <contour>
      <point x="1098" y="263" type="curve" smooth="yes"/>
      <point x="1099" y="309"/>
      <point x="1085" y="334"/>
      <point x="1052" y="334" type="curve" smooth="yes"/>
      <point x="995" y="334"/>
      <point x="975" y="244"/>
      <point x="973" y="147" type="curve" smooth="yes"/>
      <point x="972" y="102"/>
      <point x="985" y="78"/>
      <point x="1018" y="78" type="curve" smooth="yes"/>
      <point x="1076" y="78"/>
      <point x="1096" y="181"/>
    </contour>
    <contour>
      <point x="720" y="263" type="curve" smooth="yes"/>
      <point x="721" y="309"/>
      <point x="707" y="334"/>
      <point x="674" y="334" type="curve" smooth="yes"/>
      <point x="617" y="334"/>
      <point x="597" y="244"/>
      <point x="595" y="147" type="curve" smooth="yes"/>
      <point x="594" y="102"/>
      <point x="607" y="78"/>
      <point x="640" y="78" type="curve" smooth="yes"/>
      <point x="698" y="78"/>
      <point x="718" y="181"/>
    </contour>
  </outline>
</glyph>
<glyph name="guilsinglleft" format="1">
  <advance width="308"/>
  <unicode hex="2039"/>
  <outline>
    <contour>
      <point x="221" y="0" type="line"/>
      <point x="103" y="0" type="line"/>
      <point x="14" y="262" type="line"/>
      <point x="196" y="525" type="line"/>
      <point x="314" y="525" type="line"/>
      <point x="137" y="263" type="line"/>
    </contour>
  </outline>
</glyph>
<glyph name="fraction" format="1">
  <advance width="419"/>
  <unicode hex="2044"/>
  <outline>
    <contour>
      <point x="533" y="700" type="line"/>
      <point x="21" y="0" type="line"/>
      <point x="-114" y="0" type="line"/>
      <point x="398" y="700" type="line"/>
    </contour>
  </outline>
</glyph>
<glyph name="Euro" format="1">
  <advance width="490"/>
  <unicode hex="20AC"/>
  <outline>
    <contour>
      <point x="178" y="373" type="line"/>
      <point x="174" y="358"/>
      <point x="171" y="340"/>
      <point x="169" y="326" type="curve"/>
      <point x="350" y="326" type="line"/>
      <point x="335" y="239" type="line"/>
      <point x="162" y="239" type="line"/>
      <point x="158" y="160"/>
      <point x="186" y="109"/>
      <point x="236" y="109" type="curve" smooth="yes"/>
      <point x="279" y="109"/>
      <point x="311" y="136"/>
      <point x="345" y="209" type="curve"/>
      <point x="445" y="163" type="line"/>
      <point x="392" y="46"/>
      <point x="320" y="-11"/>
      <point x="211" y="-11" type="curve" smooth="yes"/>
      <point x="93" y="-11"/>
      <point x="39" y="89"/>
      <point x="39" y="231" type="curve" smooth="yes"/>
      <point x="39" y="468"/>
      <point x="148" y="711"/>
      <point x="334" y="711" type="curve" smooth="yes"/>
      <point x="453" y="711"/>
      <point x="499" y="643"/>
      <point x="510" y="539" type="curve"/>
      <point x="386" y="501" type="line"/>
      <point x="380" y="559"/>
      <point x="360" y="591"/>
      <point x="312" y="591" type="curve" smooth="yes"/>
      <point x="264" y="591"/>
      <point x="228" y="549"/>
      <point x="200" y="460" type="curve"/>
      <point x="374" y="460" type="line"/>
      <point x="359" y="373" type="line"/>
    </contour>
  </outline>
</glyph>
<glyph name="trademark" format="1">
  <advance width="621"/>
  <unicode hex="2122"/>
  <outline>
    <contour>
      <point x="294" y="633" type="line"/>
      <point x="213" y="633" type="line"/>
      <point x="155" y="308" type="line"/>
      <point x="85" y="308" type="line"/>
      <point x="143" y="633" type="line"/>
      <point x="62" y="633" type="line"/>
      <point x="73" y="700" type="line"/>
      <point x="305" y="700" type="line"/>
    </contour>
    <contour>
      <point x="566" y="308" type="line"/>
      <point x="502" y="308" type="line"/>
      <point x="524" y="433" type="line" smooth="yes"/>
      <point x="531" y="472"/>
      <point x="538" y="508"/>
      <point x="543" y="535" type="curve"/>
      <point x="531" y="508"/>
      <point x="512" y="472"/>
      <point x="493" y="435" type="curve" smooth="yes"/>
      <point x="422" y="298" type="line"/>
      <point x="399" y="435" type="line" smooth="yes"/>
      <point x="393" y="473"/>
      <point x="387" y="509"/>
      <point x="384" y="536" type="curve"/>
      <point x="380" y="509"/>
      <point x="373" y="473"/>
      <point x="366" y="433" type="curve" smooth="yes"/>
      <point x="344" y="308" type="line"/>
      <point x="280" y="308" type="line"/>
      <point x="349" y="700" type="line"/>
      <point x="420" y="700" type="line"/>
      <point x="443" y="553" type="line" smooth="yes"/>
      <point x="448" y="520"/>
      <point x="451" y="493"/>
      <point x="453" y="469" type="curve"/>
      <point x="463" y="493"/>
      <point x="477" y="521"/>
      <point x="493" y="553" type="curve" smooth="yes"/>
      <point x="565" y="700" type="line"/>
      <point x="635" y="700" type="line"/>
    </contour>
  </outline>
</glyph>
<glyph name="arrowleft" format="1">
  <advance width="580"/>
  <unicode hex="2190"/>
  <outline>
    <contour>
      <point x="535" y="287" type="line"/>
      <point x="239" y="287" type="line"/>
      <point x="255" y="232" type="line" smooth="yes"/>
      <point x="260" y="215"/>
      <point x="256" y="205"/>
      <point x="245" y="197" type="curve" smooth="yes"/>
      <point x="239" y="193"/>
      <point x="228" y="192"/>
      <point x="216" y="199" type="curve"/>
      <point x="20" y="347" type="line"/>
      <point x="216" y="492" type="line" smooth="yes"/>
      <point x="228" y="501"/>
      <point x="239" y="499"/>
      <point x="245" y="495" type="curve" smooth="yes"/>
      <point x="257" y="487"/>
      <point x="260" y="478"/>
      <point x="255" y="462" type="curve" smooth="yes"/>
      <point x="239" y="405" type="line"/>
      <point x="535" y="405" type="line"/>
    </contour>
  </outline>
</glyph>
<glyph name="arrowright" format="1">
  <advance width="580"/>
  <unicode hex="2192"/>
  <outline>
    <contour>
      <point x="560" y="347" type="line"/>
      <point x="364" y="199" type="line"/>
      <point x="352" y="192"/>
      <point x="341" y="193"/>
      <point x="335" y="197" type="curve" smooth="yes"/>
      <point x="324" y="205"/>
      <point x="320" y="215"/>
      <point x="325" y="232" type="curve" smooth="yes"/>
      <point x="341" y="287" type="line"/>
      <point x="45" y="287" type="line"/>
      <point x="45" y="405" type="line"/>
      <point x="341" y="405" type="line"/>
      <point x="325" y="462" type="line" smooth="yes"/>
      <point x="320" y="478"/>
      <point x="323" y="487"/>
      <point x="335" y="495" type="curve" smooth="yes"/>
      <point x="341" y="499"/>
      <point x="352" y="501"/>
      <point x="364" y="492" type="curve" smooth="yes"/>
    </contour>
  </outline>
</glyph>
<glyph name="arrowdown" format="1">
  <advance width="408"/>
  <unicode hex="2193"/>
  <outline>
    <contour>
      <point x="353" y="210" type="curve" smooth="yes"/>
      <point x="357" y="204"/>
      <point x="359" y="193"/>
      <point x="350" y="181" type="curve" smooth="yes"/>
      <point x="205" y="-15" type="line"/>
      <point x="57" y="181" type="line"/>
      <point x="50" y="193"/>
      <point x="51" y="204"/>
      <point x="55" y="210" type="curve" smooth="yes"/>
      <point x="63" y="221"/>
      <point x="73" y="225"/>
      <point x="90" y="220" type="curve" smooth="yes"/>
      <point x="145" y="204" type="line"/>
      <point x="145" y="700" type="line"/>
      <point x="263" y="700" type="line"/>
      <point x="263" y="204" type="line"/>
      <point x="320" y="220" type="line" smooth="yes"/>
      <point x="336" y="225"/>
      <point x="345" y="222"/>
    </contour>
  </outline>
</glyph>
<glyph name="arrowboth" format="1">
  <advance width="730"/>
  <unicode hex="2194"/>
  <outline>
    <contour>
      <point x="710" y="347" type="line"/>
      <point x="514" y="199" type="line"/>
      <point x="502" y="192"/>
      <point x="491" y="193"/>
      <point x="485" y="197" type="curve" smooth="yes"/>
      <point x="474" y="205"/>
      <point x="470" y="215"/>
      <point x="475" y="232" type="curve" smooth="yes"/>
      <point x="491" y="287" type="line"/>
      <point x="239" y="287" type="line"/>
      <point x="255" y="232" type="line" smooth="yes"/>
      <point x="260" y="215"/>
      <point x="256" y="205"/>
      <point x="245" y="197" type="curve" smooth="yes"/>
      <point x="239" y="193"/>
      <point x="228" y="192"/>
      <point x="216" y="199" type="curve"/>
      <point x="20" y="347" type="line"/>
      <point x="216" y="492" type="line" smooth="yes"/>
      <point x="228" y="501"/>
      <point x="239" y="499"/>
      <point x="245" y="495" type="curve" smooth="yes"/>
      <point x="257" y="487"/>
      <point x="260" y="478"/>
      <point x="255" y="462" type="curve" smooth="yes"/>
      <point x="239" y="405" type="line"/>
      <point x="491" y="405" type="line"/>
      <point x="475" y="462" type="line" smooth="yes"/>
      <point x="470" y="478"/>
      <point x="473" y="487"/>
      <point x="485" y="495" type="curve" smooth="yes"/>
      <point x="491" y="499"/>
      <point x="502" y="501"/>
      <point x="514" y="492" type="curve" smooth="yes"/>
    </contour>
  </outline>
</glyph>
<glyph name="arrowupdn" format="1">
  <advance width="408"/>
  <unicode hex="2195"/>
  <outline>
    <contour>
      <point x="353" y="210" type="curve" smooth="yes"/>
      <point x="357" y="204"/>
      <point x="359" y="193"/>
      <point x="350" y="181" type="curve" smooth="yes"/>
      <point x="205" y="-15" type="line"/>
      <point x="57" y="181" type="line"/>
      <point x="50" y="193"/>
      <point x="51" y="204"/>
      <point x="55" y="210" type="curve" smooth="yes"/>
      <point x="63" y="221"/>
      <point x="73" y="225"/>
      <point x="90" y="220" type="curve" smooth="yes"/>
      <point x="145" y="204" type="line"/>
      <point x="145" y="496" type="line"/>
      <point x="90" y="480" type="line" smooth="yes"/>
      <point x="73" y="475"/>
      <point x="63" y="479"/>
      <point x="55" y="490" type="curve" smooth="yes"/>
      <point x="51" y="496"/>
      <point x="50" y="507"/>
      <point x="57" y="519" type="curve"/>
      <point x="205" y="715" type="line"/>
      <point x="350" y="519" type="line" smooth="yes"/>
      <point x="359" y="507"/>
      <point x="357" y="496"/>
      <point x="353" y="490" type="curve" smooth="yes"/>
      <point x="345" y="478"/>
      <point x="336" y="475"/>
      <point x="320" y="480" type="curve" smooth="yes"/>
      <point x="263" y="496" type="line"/>
      <point x="263" y="204" type="line"/>
      <point x="320" y="220" type="line" smooth="yes"/>
      <point x="336" y="225"/>
      <point x="345" y="222"/>
    </contour>
  </outline>
</glyph>
<glyph name="radical" format="1">
  <advance width="524"/>
  <unicode hex="221A"/>
  <outline>
    <contour>
      <point x="589" y="700" type="line"/>
      <point x="235" y="0" type="line"/>
      <point x="102" y="0" type="line"/>
      <point x="39" y="340" type="line"/>
      <point x="166" y="340" type="line"/>
      <point x="178" y="242" type="line" smooth="yes"/>
      <point x="183" y="201"/>
      <point x="188" y="149"/>
      <point x="188" y="116" type="curve"/>
      <point x="204" y="153"/>
      <point x="229" y="206"/>
      <point x="248" y="246" type="curve" smooth="yes"/>
      <point x="466" y="700" type="line"/>
    </contour>
  </outline>
</glyph>
<glyph name="apple" format="1">
  <advance width="770"/>
  <unicode hex="F8FF"/>
  <outline>
    <contour>
      <point x="750" y="350" type="line"/>
      <point x="574" y="217" type="line" smooth="yes"/>
      <point x="564" y="209"/>
      <point x="553" y="211"/>
      <point x="548" y="215" type="curve" smooth="yes"/>
      <point x="538" y="222"/>
      <point x="535" y="231"/>
      <point x="539" y="246" type="curve" smooth="yes"/>
      <point x="553" y="296" type="line"/>
      <point x="437" y="296" type="line"/>
      <point x="437" y="182" type="line"/>
      <point x="488" y="196" type="line" smooth="yes"/>
      <point x="503" y="200"/>
      <point x="511" y="198"/>
      <point x="518" y="187" type="curve"/>
      <point x="522" y="182"/>
      <point x="523" y="172"/>
      <point x="515" y="161" type="curve" smooth="yes"/>
      <point x="385" y="-15" type="line"/>
      <point x="252" y="161" type="line" smooth="yes"/>
      <point x="244" y="171"/>
      <point x="246" y="182"/>
      <point x="250" y="187" type="curve" smooth="yes"/>
      <point x="257" y="197"/>
      <point x="266" y="200"/>
      <point x="281" y="196" type="curve" smooth="yes"/>
      <point x="331" y="182" type="line"/>
      <point x="331" y="296" type="line"/>
      <point x="217" y="296" type="line"/>
      <point x="231" y="246" type="line" smooth="yes"/>
      <point x="235" y="231"/>
      <point x="232" y="222"/>
      <point x="222" y="215" type="curve" smooth="yes"/>
      <point x="217" y="211"/>
      <point x="206" y="209"/>
      <point x="196" y="217" type="curve" smooth="yes"/>
      <point x="20" y="350" type="line"/>
      <point x="196" y="480" type="line" smooth="yes"/>
      <point x="207" y="488"/>
      <point x="217" y="487"/>
      <point x="222" y="483" type="curve"/>
      <point x="233" y="476"/>
      <point x="235" y="468"/>
      <point x="231" y="453" type="curve" smooth="yes"/>
      <point x="217" y="402" type="line"/>
      <point x="331" y="402" type="line"/>
      <point x="331" y="518" type="line"/>
      <point x="281" y="504" type="line" smooth="yes"/>
      <point x="266" y="500"/>
      <point x="257" y="503"/>
      <point x="250" y="513" type="curve" smooth="yes"/>
      <point x="246" y="518"/>
      <point x="244" y="529"/>
      <point x="252" y="539" type="curve" smooth="yes"/>
      <point x="385" y="715" type="line"/>
      <point x="515" y="539" type="line" smooth="yes"/>
      <point x="523" y="528"/>
      <point x="522" y="518"/>
      <point x="518" y="513" type="curve"/>
      <point x="511" y="502"/>
      <point x="503" y="500"/>
      <point x="488" y="504" type="curve" smooth="yes"/>
      <point x="437" y="518" type="line"/>
      <point x="437" y="402" type="line"/>
      <point x="553" y="402" type="line"/>
      <point x="539" y="453" type="line" smooth="yes"/>
      <point x="535" y="468"/>
      <point x="537" y="476"/>
      <point x="548" y="483" type="curve"/>
      <point x="553" y="487"/>
      <point x="563" y="488"/>
      <point x="574" y="480" type="curve" smooth="yes"/>
    </contour>
  </outline>
</glyph>
<glyph name="fi" format="1">
  <advance width="538"/>
  <unicode hex="FB01"/>
  <outline>
    <contour>
      <point x="543" y="651" type="curve" smooth="yes"/>
      <point x="543" y="610"/>
      <point x="509" y="576"/>
      <point x="468" y="576" type="curve" smooth="yes"/>
      <point x="427" y="576"/>
      <point x="393" y="610"/>
      <point x="393" y="651" type="curve" smooth="yes"/>
      <point x="393" y="692"/>
      <point x="427" y="726"/>
      <point x="468" y="726" type="curve" smooth="yes"/>
      <point x="509" y="726"/>
      <point x="543" y="692"/>
    </contour>
    <contour>
      <point x="341" y="609" type="line"/>
      <point x="328" y="616"/>
      <point x="313" y="619"/>
      <point x="290" y="619" type="curve" smooth="yes"/>
      <point x="257" y="619"/>
      <point x="241" y="606"/>
      <point x="235" y="568" type="curve" smooth="yes"/>
      <point x="228" y="525" type="line"/>
      <point x="312" y="525" type="line"/>
      <point x="292" y="413" type="line"/>
      <point x="208" y="413" type="line"/>
      <point x="135" y="0" type="line"/>
      <point x="17" y="0" type="line"/>
      <point x="90" y="413" type="line"/>
      <point x="37" y="413" type="line"/>
      <point x="57" y="525" type="line"/>
      <point x="110" y="525" type="line"/>
      <point x="121" y="588" type="line" smooth="yes"/>
      <point x="138" y="684"/>
      <point x="202" y="726"/>
      <point x="273" y="726" type="curve" smooth="yes"/>
      <point x="314" y="726"/>
      <point x="338" y="721"/>
      <point x="359" y="711" type="curve"/>
    </contour>
    <contour>
      <point x="412" y="0" type="line"/>
      <point x="294" y="0" type="line"/>
      <point x="387" y="525" type="line"/>
      <point x="505" y="525" type="line"/>
    </contour>
  </outline>
</glyph>
<glyph name="fl" format="1">
  <advance width="548"/>
  <unicode hex="FB02"/>
  <outline>
    <contour>
      <point x="412" y="0" type="line"/>
      <point x="294" y="0" type="line"/>
      <point x="412" y="670" type="line"/>
      <point x="541" y="729" type="line"/>
    </contour>
    <contour>
      <point x="341" y="609" type="line"/>
      <point x="328" y="616"/>
      <point x="313" y="619"/>
      <point x="290" y="619" type="curve" smooth="yes"/>
      <point x="257" y="619"/>
      <point x="241" y="606"/>
      <point x="235" y="568" type="curve" smooth="yes"/>
      <point x="228" y="525" type="line"/>
      <point x="312" y="525" type="line"/>
      <point x="292" y="413" type="line"/>
      <point x="208" y="413" type="line"/>
      <point x="135" y="0" type="line"/>
      <point x="17" y="0" type="line"/>
      <point x="90" y="413" type="line"/>
      <point x="37" y="413" type="line"/>
      <point x="57" y="525" type="line"/>
      <point x="110" y="525" type="line"/>
      <point x="121" y="588" type="line" smooth="yes"/>
      <point x="138" y="684"/>
      <point x="202" y="726"/>
      <point x="273" y="726" type="curve" smooth="yes"/>
      <point x="314" y="726"/>
      <point x="338" y="721"/>
      <point x="359" y="711" type="curve"/>
    </contour>
  </outline>
</glyph>
<glyph name="a.salt" format="1">
  <advance width="464"/>
  <outline>
    <contour>
      <point x="133" y="-11" type="curve" smooth="yes"/>
      <point x="55" y="-11"/>
      <point x="14" y="44"/>
      <point x="14" y="161" type="curve" smooth="yes"/>
      <point x="14" y="191"/>
      <point x="17" y="224"/>
      <point x="22" y="262" type="curve" smooth="yes"/>
      <point x="45" y="423"/>
      <point x="125" y="536"/>
      <point x="240" y="536" type="curve" smooth="yes"/>
      <point x="275" y="536"/>
      <point x="299" y="520"/>
      <point x="317" y="496" type="curve"/>
      <point x="323" y="525" type="line"/>
      <point x="441" y="525" type="line"/>
      <point x="348" y="0" type="line"/>
      <point x="230" y="0" type="line"/>
      <point x="236" y="36" type="line"/>
      <point x="208" y="9"/>
      <point x="168" y="-11"/>
    </contour>
    <contour>
      <point x="255" y="143" type="curve"/>
      <point x="297" y="381" type="line"/>
      <point x="285" y="404"/>
      <point x="269" y="426"/>
      <point x="236" y="426" type="curve" smooth="yes"/>
      <point x="194" y="426"/>
      <point x="161" y="389"/>
      <point x="143" y="266" type="curve" smooth="yes"/>
      <point x="137" y="228"/>
      <point x="135" y="197"/>
      <point x="135" y="173" type="curve" smooth="yes"/>
      <point x="135" y="122"/>
      <point x="149" y="99"/>
      <point x="182" y="99" type="curve" smooth="yes"/>
      <point x="211" y="99"/>
      <point x="238" y="122"/>
    </contour>
  </outline>
</glyph>
<glyph name="bullet" format="1">
  <advance width="404"/>
  <outline>
    <contour>
      <point x="364" y="366" type="curve" smooth="yes"/>
      <point x="364" y="275"/>
      <point x="293" y="204"/>
      <point x="202" y="204" type="curve" smooth="yes"/>
      <point x="111" y="204"/>
      <point x="40" y="275"/>
      <point x="40" y="366" type="curve" smooth="yes"/>
      <point x="40" y="457"/>
      <point x="111" y="530"/>
      <point x="202" y="530" type="curve" smooth="yes"/>
      <point x="293" y="530"/>
      <point x="364" y="457"/>
    </contour>
  </outline>
</glyph>
<glyph name="macron" format="1">
  <advance width="400"/>
  <outline>
    <contour>
      <point x="369" y="610" type="line"/>
      <point x="109" y="610" type="line"/>
      <point x="125" y="705" type="line"/>
      <point x="385" y="705" type="line"/>
    </contour>
  </outline>
</glyph>
